ISO-10303-21;
HEADER;
/* Generated by software containing ST-Developer
 * from STEP Tools, Inc. (www.steptools.com) 
 */

FILE_DESCRIPTION(
/* description */ (''),
/* implementation_level */ '2;1');

FILE_NAME(
/* name */ 'table.step',
/* time_stamp */ '2026-08-25T10:27:27+02:00',
/* author */ (''),
/* organization */ (''),
/* preprocessor_version */ 'ST-DEVELOPER v20.1',
/* originating_system */ 'Autodesk Translation Framework v15.8.0.0',
/* authorisation */ '');

FILE_SCHEMA (('AUTOMOTIVE_DESIGN { 1 0 10303 214 3 1 1 }'));
ENDSEC;

DATA;
#10=MECHANICAL_DESIGN_GEOMETRIC_PRESENTATION_REPRESENTATION('',(#13,#14,
#15,#16,#17,#18,#19,#20,#21,#22,#23,#24,#25,#26,#27),#2297);
#11=SHAPE_REPRESENTATION_RELATIONSHIP('SRR','None',#2304,#12);
#12=ADVANCED_BREP_SHAPE_REPRESENTATION('',(#28,#29,#30,#31,#32,#33,#34,
#35,#36,#37,#38,#39,#40,#41,#42),#2296);
#13=STYLED_ITEM('',(#2313),#28);
#14=STYLED_ITEM('',(#2313),#29);
#15=STYLED_ITEM('',(#2313),#30);
#16=STYLED_ITEM('',(#2313),#31);
#17=STYLED_ITEM('',(#2313),#32);
#18=STYLED_ITEM('',(#2313),#33);
#19=STYLED_ITEM('',(#2313),#34);
#20=STYLED_ITEM('',(#2313),#35);
#21=STYLED_ITEM('',(#2313),#36);
#22=STYLED_ITEM('',(#2313),#37);
#23=STYLED_ITEM('',(#2313),#38);
#24=STYLED_ITEM('',(#2313),#39);
#25=STYLED_ITEM('',(#2313),#40);
#26=STYLED_ITEM('',(#2313),#41);
#27=STYLED_ITEM('',(#2313),#42);
#28=MANIFOLD_SOLID_BREP('Body1',#1423);
#29=MANIFOLD_SOLID_BREP('Body2',#1424);
#30=MANIFOLD_SOLID_BREP('Body3',#1425);
#31=MANIFOLD_SOLID_BREP('Body4',#1426);
#32=MANIFOLD_SOLID_BREP('Body5',#1427);
#33=MANIFOLD_SOLID_BREP('Body6',#1428);
#34=MANIFOLD_SOLID_BREP('Body7',#1429);
#35=MANIFOLD_SOLID_BREP('Body8',#1430);
#36=MANIFOLD_SOLID_BREP('Body14',#1431);
#37=MANIFOLD_SOLID_BREP('Body15',#1432);
#38=MANIFOLD_SOLID_BREP('Body18',#1433);
#39=MANIFOLD_SOLID_BREP('Body19',#1434);
#40=MANIFOLD_SOLID_BREP('Body23',#1435);
#41=MANIFOLD_SOLID_BREP('Body24',#1436);
#42=MANIFOLD_SOLID_BREP('Body25',#1437);
#43=FACE_OUTER_BOUND('',#133,.T.);
#44=FACE_OUTER_BOUND('',#134,.T.);
#45=FACE_OUTER_BOUND('',#135,.T.);
#46=FACE_OUTER_BOUND('',#136,.T.);
#47=FACE_OUTER_BOUND('',#137,.T.);
#48=FACE_OUTER_BOUND('',#138,.T.);
#49=FACE_OUTER_BOUND('',#139,.T.);
#50=FACE_OUTER_BOUND('',#140,.T.);
#51=FACE_OUTER_BOUND('',#141,.T.);
#52=FACE_OUTER_BOUND('',#142,.T.);
#53=FACE_OUTER_BOUND('',#143,.T.);
#54=FACE_OUTER_BOUND('',#144,.T.);
#55=FACE_OUTER_BOUND('',#145,.T.);
#56=FACE_OUTER_BOUND('',#146,.T.);
#57=FACE_OUTER_BOUND('',#147,.T.);
#58=FACE_OUTER_BOUND('',#148,.T.);
#59=FACE_OUTER_BOUND('',#149,.T.);
#60=FACE_OUTER_BOUND('',#150,.T.);
#61=FACE_OUTER_BOUND('',#151,.T.);
#62=FACE_OUTER_BOUND('',#152,.T.);
#63=FACE_OUTER_BOUND('',#153,.T.);
#64=FACE_OUTER_BOUND('',#154,.T.);
#65=FACE_OUTER_BOUND('',#155,.T.);
#66=FACE_OUTER_BOUND('',#156,.T.);
#67=FACE_OUTER_BOUND('',#157,.T.);
#68=FACE_OUTER_BOUND('',#158,.T.);
#69=FACE_OUTER_BOUND('',#159,.T.);
#70=FACE_OUTER_BOUND('',#160,.T.);
#71=FACE_OUTER_BOUND('',#161,.T.);
#72=FACE_OUTER_BOUND('',#162,.T.);
#73=FACE_OUTER_BOUND('',#163,.T.);
#74=FACE_OUTER_BOUND('',#164,.T.);
#75=FACE_OUTER_BOUND('',#165,.T.);
#76=FACE_OUTER_BOUND('',#166,.T.);
#77=FACE_OUTER_BOUND('',#167,.T.);
#78=FACE_OUTER_BOUND('',#168,.T.);
#79=FACE_OUTER_BOUND('',#169,.T.);
#80=FACE_OUTER_BOUND('',#170,.T.);
#81=FACE_OUTER_BOUND('',#171,.T.);
#82=FACE_OUTER_BOUND('',#172,.T.);
#83=FACE_OUTER_BOUND('',#173,.T.);
#84=FACE_OUTER_BOUND('',#174,.T.);
#85=FACE_OUTER_BOUND('',#175,.T.);
#86=FACE_OUTER_BOUND('',#176,.T.);
#87=FACE_OUTER_BOUND('',#177,.T.);
#88=FACE_OUTER_BOUND('',#178,.T.);
#89=FACE_OUTER_BOUND('',#179,.T.);
#90=FACE_OUTER_BOUND('',#180,.T.);
#91=FACE_OUTER_BOUND('',#181,.T.);
#92=FACE_OUTER_BOUND('',#182,.T.);
#93=FACE_OUTER_BOUND('',#183,.T.);
#94=FACE_OUTER_BOUND('',#184,.T.);
#95=FACE_OUTER_BOUND('',#185,.T.);
#96=FACE_OUTER_BOUND('',#186,.T.);
#97=FACE_OUTER_BOUND('',#187,.T.);
#98=FACE_OUTER_BOUND('',#188,.T.);
#99=FACE_OUTER_BOUND('',#189,.T.);
#100=FACE_OUTER_BOUND('',#190,.T.);
#101=FACE_OUTER_BOUND('',#191,.T.);
#102=FACE_OUTER_BOUND('',#192,.T.);
#103=FACE_OUTER_BOUND('',#193,.T.);
#104=FACE_OUTER_BOUND('',#194,.T.);
#105=FACE_OUTER_BOUND('',#195,.T.);
#106=FACE_OUTER_BOUND('',#196,.T.);
#107=FACE_OUTER_BOUND('',#197,.T.);
#108=FACE_OUTER_BOUND('',#198,.T.);
#109=FACE_OUTER_BOUND('',#199,.T.);
#110=FACE_OUTER_BOUND('',#200,.T.);
#111=FACE_OUTER_BOUND('',#201,.T.);
#112=FACE_OUTER_BOUND('',#202,.T.);
#113=FACE_OUTER_BOUND('',#203,.T.);
#114=FACE_OUTER_BOUND('',#204,.T.);
#115=FACE_OUTER_BOUND('',#205,.T.);
#116=FACE_OUTER_BOUND('',#206,.T.);
#117=FACE_OUTER_BOUND('',#207,.T.);
#118=FACE_OUTER_BOUND('',#208,.T.);
#119=FACE_OUTER_BOUND('',#209,.T.);
#120=FACE_OUTER_BOUND('',#210,.T.);
#121=FACE_OUTER_BOUND('',#211,.T.);
#122=FACE_OUTER_BOUND('',#212,.T.);
#123=FACE_OUTER_BOUND('',#213,.T.);
#124=FACE_OUTER_BOUND('',#214,.T.);
#125=FACE_OUTER_BOUND('',#215,.T.);
#126=FACE_OUTER_BOUND('',#216,.T.);
#127=FACE_OUTER_BOUND('',#217,.T.);
#128=FACE_OUTER_BOUND('',#218,.T.);
#129=FACE_OUTER_BOUND('',#219,.T.);
#130=FACE_OUTER_BOUND('',#220,.T.);
#131=FACE_OUTER_BOUND('',#221,.T.);
#132=FACE_OUTER_BOUND('',#222,.T.);
#133=EDGE_LOOP('',(#883,#884,#885,#886));
#134=EDGE_LOOP('',(#887,#888,#889,#890));
#135=EDGE_LOOP('',(#891,#892,#893,#894));
#136=EDGE_LOOP('',(#895,#896,#897,#898));
#137=EDGE_LOOP('',(#899,#900,#901,#902));
#138=EDGE_LOOP('',(#903,#904,#905,#906));
#139=EDGE_LOOP('',(#907,#908,#909,#910));
#140=EDGE_LOOP('',(#911,#912,#913,#914));
#141=EDGE_LOOP('',(#915,#916,#917,#918));
#142=EDGE_LOOP('',(#919,#920,#921,#922));
#143=EDGE_LOOP('',(#923,#924,#925,#926));
#144=EDGE_LOOP('',(#927,#928,#929,#930));
#145=EDGE_LOOP('',(#931,#932,#933,#934));
#146=EDGE_LOOP('',(#935,#936,#937,#938));
#147=EDGE_LOOP('',(#939,#940,#941,#942));
#148=EDGE_LOOP('',(#943,#944,#945,#946));
#149=EDGE_LOOP('',(#947,#948,#949,#950));
#150=EDGE_LOOP('',(#951,#952,#953,#954));
#151=EDGE_LOOP('',(#955,#956,#957,#958));
#152=EDGE_LOOP('',(#959,#960,#961,#962));
#153=EDGE_LOOP('',(#963,#964,#965,#966));
#154=EDGE_LOOP('',(#967,#968,#969,#970));
#155=EDGE_LOOP('',(#971,#972,#973,#974));
#156=EDGE_LOOP('',(#975,#976,#977,#978));
#157=EDGE_LOOP('',(#979,#980,#981,#982));
#158=EDGE_LOOP('',(#983,#984,#985,#986));
#159=EDGE_LOOP('',(#987,#988,#989,#990));
#160=EDGE_LOOP('',(#991,#992,#993,#994));
#161=EDGE_LOOP('',(#995,#996,#997,#998));
#162=EDGE_LOOP('',(#999,#1000,#1001,#1002));
#163=EDGE_LOOP('',(#1003,#1004,#1005,#1006));
#164=EDGE_LOOP('',(#1007,#1008,#1009,#1010));
#165=EDGE_LOOP('',(#1011,#1012,#1013,#1014));
#166=EDGE_LOOP('',(#1015,#1016,#1017,#1018));
#167=EDGE_LOOP('',(#1019,#1020,#1021,#1022));
#168=EDGE_LOOP('',(#1023,#1024,#1025,#1026));
#169=EDGE_LOOP('',(#1027,#1028,#1029,#1030));
#170=EDGE_LOOP('',(#1031,#1032,#1033,#1034));
#171=EDGE_LOOP('',(#1035,#1036,#1037,#1038));
#172=EDGE_LOOP('',(#1039,#1040,#1041,#1042));
#173=EDGE_LOOP('',(#1043,#1044,#1045,#1046));
#174=EDGE_LOOP('',(#1047,#1048,#1049,#1050));
#175=EDGE_LOOP('',(#1051,#1052,#1053,#1054));
#176=EDGE_LOOP('',(#1055,#1056,#1057,#1058));
#177=EDGE_LOOP('',(#1059,#1060,#1061,#1062));
#178=EDGE_LOOP('',(#1063,#1064,#1065,#1066));
#179=EDGE_LOOP('',(#1067,#1068,#1069,#1070));
#180=EDGE_LOOP('',(#1071,#1072,#1073,#1074));
#181=EDGE_LOOP('',(#1075,#1076,#1077,#1078));
#182=EDGE_LOOP('',(#1079,#1080,#1081,#1082));
#183=EDGE_LOOP('',(#1083,#1084,#1085,#1086));
#184=EDGE_LOOP('',(#1087,#1088,#1089,#1090));
#185=EDGE_LOOP('',(#1091,#1092,#1093,#1094));
#186=EDGE_LOOP('',(#1095,#1096,#1097,#1098));
#187=EDGE_LOOP('',(#1099,#1100,#1101,#1102));
#188=EDGE_LOOP('',(#1103,#1104,#1105,#1106));
#189=EDGE_LOOP('',(#1107,#1108,#1109,#1110));
#190=EDGE_LOOP('',(#1111,#1112,#1113,#1114));
#191=EDGE_LOOP('',(#1115,#1116,#1117,#1118));
#192=EDGE_LOOP('',(#1119,#1120,#1121,#1122));
#193=EDGE_LOOP('',(#1123,#1124,#1125,#1126));
#194=EDGE_LOOP('',(#1127,#1128,#1129,#1130));
#195=EDGE_LOOP('',(#1131,#1132,#1133,#1134));
#196=EDGE_LOOP('',(#1135,#1136,#1137,#1138));
#197=EDGE_LOOP('',(#1139,#1140,#1141,#1142));
#198=EDGE_LOOP('',(#1143,#1144,#1145,#1146));
#199=EDGE_LOOP('',(#1147,#1148,#1149,#1150));
#200=EDGE_LOOP('',(#1151,#1152,#1153,#1154));
#201=EDGE_LOOP('',(#1155,#1156,#1157,#1158));
#202=EDGE_LOOP('',(#1159,#1160,#1161,#1162));
#203=EDGE_LOOP('',(#1163,#1164,#1165,#1166));
#204=EDGE_LOOP('',(#1167,#1168,#1169,#1170));
#205=EDGE_LOOP('',(#1171,#1172,#1173,#1174));
#206=EDGE_LOOP('',(#1175,#1176,#1177,#1178));
#207=EDGE_LOOP('',(#1179,#1180,#1181,#1182));
#208=EDGE_LOOP('',(#1183,#1184,#1185,#1186));
#209=EDGE_LOOP('',(#1187,#1188,#1189,#1190));
#210=EDGE_LOOP('',(#1191,#1192,#1193,#1194));
#211=EDGE_LOOP('',(#1195,#1196,#1197,#1198));
#212=EDGE_LOOP('',(#1199,#1200,#1201,#1202));
#213=EDGE_LOOP('',(#1203,#1204,#1205,#1206));
#214=EDGE_LOOP('',(#1207,#1208,#1209,#1210));
#215=EDGE_LOOP('',(#1211,#1212,#1213,#1214));
#216=EDGE_LOOP('',(#1215,#1216,#1217,#1218));
#217=EDGE_LOOP('',(#1219,#1220,#1221,#1222));
#218=EDGE_LOOP('',(#1223,#1224,#1225,#1226));
#219=EDGE_LOOP('',(#1227,#1228,#1229,#1230));
#220=EDGE_LOOP('',(#1231,#1232,#1233,#1234));
#221=EDGE_LOOP('',(#1235,#1236,#1237,#1238));
#222=EDGE_LOOP('',(#1239,#1240,#1241,#1242));
#223=LINE('',#1907,#403);
#224=LINE('',#1909,#404);
#225=LINE('',#1911,#405);
#226=LINE('',#1912,#406);
#227=LINE('',#1915,#407);
#228=LINE('',#1917,#408);
#229=LINE('',#1918,#409);
#230=LINE('',#1921,#410);
#231=LINE('',#1923,#411);
#232=LINE('',#1924,#412);
#233=LINE('',#1926,#413);
#234=LINE('',#1927,#414);
#235=LINE('',#1933,#415);
#236=LINE('',#1935,#416);
#237=LINE('',#1937,#417);
#238=LINE('',#1938,#418);
#239=LINE('',#1941,#419);
#240=LINE('',#1943,#420);
#241=LINE('',#1944,#421);
#242=LINE('',#1947,#422);
#243=LINE('',#1949,#423);
#244=LINE('',#1950,#424);
#245=LINE('',#1952,#425);
#246=LINE('',#1953,#426);
#247=LINE('',#1959,#427);
#248=LINE('',#1961,#428);
#249=LINE('',#1963,#429);
#250=LINE('',#1964,#430);
#251=LINE('',#1967,#431);
#252=LINE('',#1969,#432);
#253=LINE('',#1970,#433);
#254=LINE('',#1973,#434);
#255=LINE('',#1975,#435);
#256=LINE('',#1976,#436);
#257=LINE('',#1978,#437);
#258=LINE('',#1979,#438);
#259=LINE('',#1985,#439);
#260=LINE('',#1987,#440);
#261=LINE('',#1989,#441);
#262=LINE('',#1990,#442);
#263=LINE('',#1993,#443);
#264=LINE('',#1995,#444);
#265=LINE('',#1996,#445);
#266=LINE('',#1999,#446);
#267=LINE('',#2001,#447);
#268=LINE('',#2002,#448);
#269=LINE('',#2004,#449);
#270=LINE('',#2005,#450);
#271=LINE('',#2011,#451);
#272=LINE('',#2013,#452);
#273=LINE('',#2015,#453);
#274=LINE('',#2016,#454);
#275=LINE('',#2019,#455);
#276=LINE('',#2021,#456);
#277=LINE('',#2022,#457);
#278=LINE('',#2025,#458);
#279=LINE('',#2027,#459);
#280=LINE('',#2028,#460);
#281=LINE('',#2030,#461);
#282=LINE('',#2031,#462);
#283=LINE('',#2037,#463);
#284=LINE('',#2039,#464);
#285=LINE('',#2041,#465);
#286=LINE('',#2042,#466);
#287=LINE('',#2045,#467);
#288=LINE('',#2047,#468);
#289=LINE('',#2048,#469);
#290=LINE('',#2051,#470);
#291=LINE('',#2053,#471);
#292=LINE('',#2054,#472);
#293=LINE('',#2056,#473);
#294=LINE('',#2057,#474);
#295=LINE('',#2063,#475);
#296=LINE('',#2065,#476);
#297=LINE('',#2067,#477);
#298=LINE('',#2068,#478);
#299=LINE('',#2071,#479);
#300=LINE('',#2073,#480);
#301=LINE('',#2074,#481);
#302=LINE('',#2077,#482);
#303=LINE('',#2079,#483);
#304=LINE('',#2080,#484);
#305=LINE('',#2082,#485);
#306=LINE('',#2083,#486);
#307=LINE('',#2089,#487);
#308=LINE('',#2091,#488);
#309=LINE('',#2093,#489);
#310=LINE('',#2094,#490);
#311=LINE('',#2097,#491);
#312=LINE('',#2099,#492);
#313=LINE('',#2100,#493);
#314=LINE('',#2103,#494);
#315=LINE('',#2105,#495);
#316=LINE('',#2106,#496);
#317=LINE('',#2108,#497);
#318=LINE('',#2109,#498);
#319=LINE('',#2115,#499);
#320=LINE('',#2117,#500);
#321=LINE('',#2119,#501);
#322=LINE('',#2120,#502);
#323=LINE('',#2123,#503);
#324=LINE('',#2125,#504);
#325=LINE('',#2126,#505);
#326=LINE('',#2129,#506);
#327=LINE('',#2131,#507);
#328=LINE('',#2132,#508);
#329=LINE('',#2134,#509);
#330=LINE('',#2135,#510);
#331=LINE('',#2141,#511);
#332=LINE('',#2143,#512);
#333=LINE('',#2145,#513);
#334=LINE('',#2146,#514);
#335=LINE('',#2149,#515);
#336=LINE('',#2151,#516);
#337=LINE('',#2152,#517);
#338=LINE('',#2155,#518);
#339=LINE('',#2157,#519);
#340=LINE('',#2158,#520);
#341=LINE('',#2160,#521);
#342=LINE('',#2161,#522);
#343=LINE('',#2167,#523);
#344=LINE('',#2169,#524);
#345=LINE('',#2171,#525);
#346=LINE('',#2172,#526);
#347=LINE('',#2175,#527);
#348=LINE('',#2177,#528);
#349=LINE('',#2178,#529);
#350=LINE('',#2181,#530);
#351=LINE('',#2183,#531);
#352=LINE('',#2184,#532);
#353=LINE('',#2186,#533);
#354=LINE('',#2187,#534);
#355=LINE('',#2193,#535);
#356=LINE('',#2195,#536);
#357=LINE('',#2197,#537);
#358=LINE('',#2198,#538);
#359=LINE('',#2201,#539);
#360=LINE('',#2203,#540);
#361=LINE('',#2204,#541);
#362=LINE('',#2207,#542);
#363=LINE('',#2209,#543);
#364=LINE('',#2210,#544);
#365=LINE('',#2212,#545);
#366=LINE('',#2213,#546);
#367=LINE('',#2219,#547);
#368=LINE('',#2221,#548);
#369=LINE('',#2223,#549);
#370=LINE('',#2224,#550);
#371=LINE('',#2227,#551);
#372=LINE('',#2229,#552);
#373=LINE('',#2230,#553);
#374=LINE('',#2233,#554);
#375=LINE('',#2235,#555);
#376=LINE('',#2236,#556);
#377=LINE('',#2238,#557);
#378=LINE('',#2239,#558);
#379=LINE('',#2245,#559);
#380=LINE('',#2247,#560);
#381=LINE('',#2249,#561);
#382=LINE('',#2250,#562);
#383=LINE('',#2253,#563);
#384=LINE('',#2255,#564);
#385=LINE('',#2256,#565);
#386=LINE('',#2259,#566);
#387=LINE('',#2261,#567);
#388=LINE('',#2262,#568);
#389=LINE('',#2264,#569);
#390=LINE('',#2265,#570);
#391=LINE('',#2271,#571);
#392=LINE('',#2273,#572);
#393=LINE('',#2275,#573);
#394=LINE('',#2276,#574);
#395=LINE('',#2279,#575);
#396=LINE('',#2281,#576);
#397=LINE('',#2282,#577);
#398=LINE('',#2285,#578);
#399=LINE('',#2287,#579);
#400=LINE('',#2288,#580);
#401=LINE('',#2290,#581);
#402=LINE('',#2291,#582);
#403=VECTOR('',#1545,10.);
#404=VECTOR('',#1546,10.);
#405=VECTOR('',#1547,10.);
#406=VECTOR('',#1548,10.);
#407=VECTOR('',#1551,10.);
#408=VECTOR('',#1552,10.);
#409=VECTOR('',#1553,10.);
#410=VECTOR('',#1556,10.);
#411=VECTOR('',#1557,10.);
#412=VECTOR('',#1558,10.);
#413=VECTOR('',#1561,10.);
#414=VECTOR('',#1562,10.);
#415=VECTOR('',#1569,10.);
#416=VECTOR('',#1570,10.);
#417=VECTOR('',#1571,10.);
#418=VECTOR('',#1572,10.);
#419=VECTOR('',#1575,10.);
#420=VECTOR('',#1576,10.);
#421=VECTOR('',#1577,10.);
#422=VECTOR('',#1580,10.);
#423=VECTOR('',#1581,10.);
#424=VECTOR('',#1582,10.);
#425=VECTOR('',#1585,10.);
#426=VECTOR('',#1586,10.);
#427=VECTOR('',#1593,10.);
#428=VECTOR('',#1594,10.);
#429=VECTOR('',#1595,10.);
#430=VECTOR('',#1596,10.);
#431=VECTOR('',#1599,10.);
#432=VECTOR('',#1600,10.);
#433=VECTOR('',#1601,10.);
#434=VECTOR('',#1604,10.);
#435=VECTOR('',#1605,10.);
#436=VECTOR('',#1606,10.);
#437=VECTOR('',#1609,10.);
#438=VECTOR('',#1610,10.);
#439=VECTOR('',#1617,10.);
#440=VECTOR('',#1618,10.);
#441=VECTOR('',#1619,10.);
#442=VECTOR('',#1620,10.);
#443=VECTOR('',#1623,10.);
#444=VECTOR('',#1624,10.);
#445=VECTOR('',#1625,10.);
#446=VECTOR('',#1628,10.);
#447=VECTOR('',#1629,10.);
#448=VECTOR('',#1630,10.);
#449=VECTOR('',#1633,10.);
#450=VECTOR('',#1634,10.);
#451=VECTOR('',#1641,10.);
#452=VECTOR('',#1642,10.);
#453=VECTOR('',#1643,10.);
#454=VECTOR('',#1644,10.);
#455=VECTOR('',#1647,10.);
#456=VECTOR('',#1648,10.);
#457=VECTOR('',#1649,10.);
#458=VECTOR('',#1652,10.);
#459=VECTOR('',#1653,10.);
#460=VECTOR('',#1654,10.);
#461=VECTOR('',#1657,10.);
#462=VECTOR('',#1658,10.);
#463=VECTOR('',#1665,10.);
#464=VECTOR('',#1666,10.);
#465=VECTOR('',#1667,10.);
#466=VECTOR('',#1668,10.);
#467=VECTOR('',#1671,10.);
#468=VECTOR('',#1672,10.);
#469=VECTOR('',#1673,10.);
#470=VECTOR('',#1676,10.);
#471=VECTOR('',#1677,10.);
#472=VECTOR('',#1678,10.);
#473=VECTOR('',#1681,10.);
#474=VECTOR('',#1682,10.);
#475=VECTOR('',#1689,10.);
#476=VECTOR('',#1690,10.);
#477=VECTOR('',#1691,10.);
#478=VECTOR('',#1692,10.);
#479=VECTOR('',#1695,10.);
#480=VECTOR('',#1696,10.);
#481=VECTOR('',#1697,10.);
#482=VECTOR('',#1700,10.);
#483=VECTOR('',#1701,10.);
#484=VECTOR('',#1702,10.);
#485=VECTOR('',#1705,10.);
#486=VECTOR('',#1706,10.);
#487=VECTOR('',#1713,10.);
#488=VECTOR('',#1714,10.);
#489=VECTOR('',#1715,10.);
#490=VECTOR('',#1716,10.);
#491=VECTOR('',#1719,10.);
#492=VECTOR('',#1720,10.);
#493=VECTOR('',#1721,10.);
#494=VECTOR('',#1724,10.);
#495=VECTOR('',#1725,10.);
#496=VECTOR('',#1726,10.);
#497=VECTOR('',#1729,10.);
#498=VECTOR('',#1730,10.);
#499=VECTOR('',#1737,10.);
#500=VECTOR('',#1738,10.);
#501=VECTOR('',#1739,10.);
#502=VECTOR('',#1740,10.);
#503=VECTOR('',#1743,10.);
#504=VECTOR('',#1744,10.);
#505=VECTOR('',#1745,10.);
#506=VECTOR('',#1748,10.);
#507=VECTOR('',#1749,10.);
#508=VECTOR('',#1750,10.);
#509=VECTOR('',#1753,10.);
#510=VECTOR('',#1754,10.);
#511=VECTOR('',#1761,10.);
#512=VECTOR('',#1762,10.);
#513=VECTOR('',#1763,10.);
#514=VECTOR('',#1764,10.);
#515=VECTOR('',#1767,10.);
#516=VECTOR('',#1768,10.);
#517=VECTOR('',#1769,10.);
#518=VECTOR('',#1772,10.);
#519=VECTOR('',#1773,10.);
#520=VECTOR('',#1774,10.);
#521=VECTOR('',#1777,10.);
#522=VECTOR('',#1778,10.);
#523=VECTOR('',#1785,10.);
#524=VECTOR('',#1786,10.);
#525=VECTOR('',#1787,10.);
#526=VECTOR('',#1788,10.);
#527=VECTOR('',#1791,10.);
#528=VECTOR('',#1792,10.);
#529=VECTOR('',#1793,10.);
#530=VECTOR('',#1796,10.);
#531=VECTOR('',#1797,10.);
#532=VECTOR('',#1798,10.);
#533=VECTOR('',#1801,10.);
#534=VECTOR('',#1802,10.);
#535=VECTOR('',#1809,10.);
#536=VECTOR('',#1810,10.);
#537=VECTOR('',#1811,10.);
#538=VECTOR('',#1812,10.);
#539=VECTOR('',#1815,10.);
#540=VECTOR('',#1816,10.);
#541=VECTOR('',#1817,10.);
#542=VECTOR('',#1820,10.);
#543=VECTOR('',#1821,10.);
#544=VECTOR('',#1822,10.);
#545=VECTOR('',#1825,10.);
#546=VECTOR('',#1826,10.);
#547=VECTOR('',#1833,10.);
#548=VECTOR('',#1834,10.);
#549=VECTOR('',#1835,10.);
#550=VECTOR('',#1836,10.);
#551=VECTOR('',#1839,10.);
#552=VECTOR('',#1840,10.);
#553=VECTOR('',#1841,10.);
#554=VECTOR('',#1844,10.);
#555=VECTOR('',#1845,10.);
#556=VECTOR('',#1846,10.);
#557=VECTOR('',#1849,10.);
#558=VECTOR('',#1850,10.);
#559=VECTOR('',#1857,10.);
#560=VECTOR('',#1858,10.);
#561=VECTOR('',#1859,10.);
#562=VECTOR('',#1860,10.);
#563=VECTOR('',#1863,10.);
#564=VECTOR('',#1864,10.);
#565=VECTOR('',#1865,10.);
#566=VECTOR('',#1868,10.);
#567=VECTOR('',#1869,10.);
#568=VECTOR('',#1870,10.);
#569=VECTOR('',#1873,10.);
#570=VECTOR('',#1874,10.);
#571=VECTOR('',#1881,10.);
#572=VECTOR('',#1882,10.);
#573=VECTOR('',#1883,10.);
#574=VECTOR('',#1884,10.);
#575=VECTOR('',#1887,10.);
#576=VECTOR('',#1888,10.);
#577=VECTOR('',#1889,10.);
#578=VECTOR('',#1892,10.);
#579=VECTOR('',#1893,10.);
#580=VECTOR('',#1894,10.);
#581=VECTOR('',#1897,10.);
#582=VECTOR('',#1898,10.);
#583=VERTEX_POINT('',#1905);
#584=VERTEX_POINT('',#1906);
#585=VERTEX_POINT('',#1908);
#586=VERTEX_POINT('',#1910);
#587=VERTEX_POINT('',#1914);
#588=VERTEX_POINT('',#1916);
#589=VERTEX_POINT('',#1920);
#590=VERTEX_POINT('',#1922);
#591=VERTEX_POINT('',#1931);
#592=VERTEX_POINT('',#1932);
#593=VERTEX_POINT('',#1934);
#594=VERTEX_POINT('',#1936);
#595=VERTEX_POINT('',#1940);
#596=VERTEX_POINT('',#1942);
#597=VERTEX_POINT('',#1946);
#598=VERTEX_POINT('',#1948);
#599=VERTEX_POINT('',#1957);
#600=VERTEX_POINT('',#1958);
#601=VERTEX_POINT('',#1960);
#602=VERTEX_POINT('',#1962);
#603=VERTEX_POINT('',#1966);
#604=VERTEX_POINT('',#1968);
#605=VERTEX_POINT('',#1972);
#606=VERTEX_POINT('',#1974);
#607=VERTEX_POINT('',#1983);
#608=VERTEX_POINT('',#1984);
#609=VERTEX_POINT('',#1986);
#610=VERTEX_POINT('',#1988);
#611=VERTEX_POINT('',#1992);
#612=VERTEX_POINT('',#1994);
#613=VERTEX_POINT('',#1998);
#614=VERTEX_POINT('',#2000);
#615=VERTEX_POINT('',#2009);
#616=VERTEX_POINT('',#2010);
#617=VERTEX_POINT('',#2012);
#618=VERTEX_POINT('',#2014);
#619=VERTEX_POINT('',#2018);
#620=VERTEX_POINT('',#2020);
#621=VERTEX_POINT('',#2024);
#622=VERTEX_POINT('',#2026);
#623=VERTEX_POINT('',#2035);
#624=VERTEX_POINT('',#2036);
#625=VERTEX_POINT('',#2038);
#626=VERTEX_POINT('',#2040);
#627=VERTEX_POINT('',#2044);
#628=VERTEX_POINT('',#2046);
#629=VERTEX_POINT('',#2050);
#630=VERTEX_POINT('',#2052);
#631=VERTEX_POINT('',#2061);
#632=VERTEX_POINT('',#2062);
#633=VERTEX_POINT('',#2064);
#634=VERTEX_POINT('',#2066);
#635=VERTEX_POINT('',#2070);
#636=VERTEX_POINT('',#2072);
#637=VERTEX_POINT('',#2076);
#638=VERTEX_POINT('',#2078);
#639=VERTEX_POINT('',#2087);
#640=VERTEX_POINT('',#2088);
#641=VERTEX_POINT('',#2090);
#642=VERTEX_POINT('',#2092);
#643=VERTEX_POINT('',#2096);
#644=VERTEX_POINT('',#2098);
#645=VERTEX_POINT('',#2102);
#646=VERTEX_POINT('',#2104);
#647=VERTEX_POINT('',#2113);
#648=VERTEX_POINT('',#2114);
#649=VERTEX_POINT('',#2116);
#650=VERTEX_POINT('',#2118);
#651=VERTEX_POINT('',#2122);
#652=VERTEX_POINT('',#2124);
#653=VERTEX_POINT('',#2128);
#654=VERTEX_POINT('',#2130);
#655=VERTEX_POINT('',#2139);
#656=VERTEX_POINT('',#2140);
#657=VERTEX_POINT('',#2142);
#658=VERTEX_POINT('',#2144);
#659=VERTEX_POINT('',#2148);
#660=VERTEX_POINT('',#2150);
#661=VERTEX_POINT('',#2154);
#662=VERTEX_POINT('',#2156);
#663=VERTEX_POINT('',#2165);
#664=VERTEX_POINT('',#2166);
#665=VERTEX_POINT('',#2168);
#666=VERTEX_POINT('',#2170);
#667=VERTEX_POINT('',#2174);
#668=VERTEX_POINT('',#2176);
#669=VERTEX_POINT('',#2180);
#670=VERTEX_POINT('',#2182);
#671=VERTEX_POINT('',#2191);
#672=VERTEX_POINT('',#2192);
#673=VERTEX_POINT('',#2194);
#674=VERTEX_POINT('',#2196);
#675=VERTEX_POINT('',#2200);
#676=VERTEX_POINT('',#2202);
#677=VERTEX_POINT('',#2206);
#678=VERTEX_POINT('',#2208);
#679=VERTEX_POINT('',#2217);
#680=VERTEX_POINT('',#2218);
#681=VERTEX_POINT('',#2220);
#682=VERTEX_POINT('',#2222);
#683=VERTEX_POINT('',#2226);
#684=VERTEX_POINT('',#2228);
#685=VERTEX_POINT('',#2232);
#686=VERTEX_POINT('',#2234);
#687=VERTEX_POINT('',#2243);
#688=VERTEX_POINT('',#2244);
#689=VERTEX_POINT('',#2246);
#690=VERTEX_POINT('',#2248);
#691=VERTEX_POINT('',#2252);
#692=VERTEX_POINT('',#2254);
#693=VERTEX_POINT('',#2258);
#694=VERTEX_POINT('',#2260);
#695=VERTEX_POINT('',#2269);
#696=VERTEX_POINT('',#2270);
#697=VERTEX_POINT('',#2272);
#698=VERTEX_POINT('',#2274);
#699=VERTEX_POINT('',#2278);
#700=VERTEX_POINT('',#2280);
#701=VERTEX_POINT('',#2284);
#702=VERTEX_POINT('',#2286);
#703=EDGE_CURVE('',#583,#584,#223,.T.);
#704=EDGE_CURVE('',#584,#585,#224,.T.);
#705=EDGE_CURVE('',#586,#585,#225,.T.);
#706=EDGE_CURVE('',#583,#586,#226,.T.);
#707=EDGE_CURVE('',#587,#583,#227,.T.);
#708=EDGE_CURVE('',#588,#586,#228,.T.);
#709=EDGE_CURVE('',#587,#588,#229,.T.);
#710=EDGE_CURVE('',#589,#587,#230,.T.);
#711=EDGE_CURVE('',#590,#588,#231,.T.);
#712=EDGE_CURVE('',#589,#590,#232,.T.);
#713=EDGE_CURVE('',#584,#589,#233,.T.);
#714=EDGE_CURVE('',#585,#590,#234,.T.);
#715=EDGE_CURVE('',#591,#592,#235,.T.);
#716=EDGE_CURVE('',#591,#593,#236,.T.);
#717=EDGE_CURVE('',#594,#593,#237,.T.);
#718=EDGE_CURVE('',#592,#594,#238,.T.);
#719=EDGE_CURVE('',#592,#595,#239,.T.);
#720=EDGE_CURVE('',#596,#594,#240,.T.);
#721=EDGE_CURVE('',#595,#596,#241,.T.);
#722=EDGE_CURVE('',#595,#597,#242,.T.);
#723=EDGE_CURVE('',#598,#596,#243,.T.);
#724=EDGE_CURVE('',#597,#598,#244,.T.);
#725=EDGE_CURVE('',#597,#591,#245,.T.);
#726=EDGE_CURVE('',#593,#598,#246,.T.);
#727=EDGE_CURVE('',#599,#600,#247,.T.);
#728=EDGE_CURVE('',#599,#601,#248,.T.);
#729=EDGE_CURVE('',#602,#601,#249,.T.);
#730=EDGE_CURVE('',#600,#602,#250,.T.);
#731=EDGE_CURVE('',#600,#603,#251,.T.);
#732=EDGE_CURVE('',#604,#602,#252,.T.);
#733=EDGE_CURVE('',#603,#604,#253,.T.);
#734=EDGE_CURVE('',#603,#605,#254,.T.);
#735=EDGE_CURVE('',#606,#604,#255,.T.);
#736=EDGE_CURVE('',#605,#606,#256,.T.);
#737=EDGE_CURVE('',#605,#599,#257,.T.);
#738=EDGE_CURVE('',#601,#606,#258,.T.);
#739=EDGE_CURVE('',#607,#608,#259,.T.);
#740=EDGE_CURVE('',#607,#609,#260,.T.);
#741=EDGE_CURVE('',#610,#609,#261,.T.);
#742=EDGE_CURVE('',#608,#610,#262,.T.);
#743=EDGE_CURVE('',#608,#611,#263,.T.);
#744=EDGE_CURVE('',#612,#610,#264,.T.);
#745=EDGE_CURVE('',#611,#612,#265,.T.);
#746=EDGE_CURVE('',#613,#611,#266,.T.);
#747=EDGE_CURVE('',#614,#612,#267,.T.);
#748=EDGE_CURVE('',#613,#614,#268,.T.);
#749=EDGE_CURVE('',#613,#607,#269,.T.);
#750=EDGE_CURVE('',#609,#614,#270,.T.);
#751=EDGE_CURVE('',#615,#616,#271,.T.);
#752=EDGE_CURVE('',#616,#617,#272,.T.);
#753=EDGE_CURVE('',#618,#617,#273,.T.);
#754=EDGE_CURVE('',#615,#618,#274,.T.);
#755=EDGE_CURVE('',#619,#615,#275,.T.);
#756=EDGE_CURVE('',#620,#618,#276,.T.);
#757=EDGE_CURVE('',#619,#620,#277,.T.);
#758=EDGE_CURVE('',#621,#619,#278,.T.);
#759=EDGE_CURVE('',#622,#620,#279,.T.);
#760=EDGE_CURVE('',#621,#622,#280,.T.);
#761=EDGE_CURVE('',#616,#621,#281,.T.);
#762=EDGE_CURVE('',#617,#622,#282,.T.);
#763=EDGE_CURVE('',#623,#624,#283,.T.);
#764=EDGE_CURVE('',#623,#625,#284,.T.);
#765=EDGE_CURVE('',#626,#625,#285,.T.);
#766=EDGE_CURVE('',#624,#626,#286,.T.);
#767=EDGE_CURVE('',#624,#627,#287,.T.);
#768=EDGE_CURVE('',#628,#626,#288,.T.);
#769=EDGE_CURVE('',#627,#628,#289,.T.);
#770=EDGE_CURVE('',#627,#629,#290,.T.);
#771=EDGE_CURVE('',#630,#628,#291,.T.);
#772=EDGE_CURVE('',#629,#630,#292,.T.);
#773=EDGE_CURVE('',#623,#629,#293,.T.);
#774=EDGE_CURVE('',#625,#630,#294,.T.);
#775=EDGE_CURVE('',#631,#632,#295,.T.);
#776=EDGE_CURVE('',#631,#633,#296,.T.);
#777=EDGE_CURVE('',#634,#633,#297,.T.);
#778=EDGE_CURVE('',#632,#634,#298,.T.);
#779=EDGE_CURVE('',#632,#635,#299,.T.);
#780=EDGE_CURVE('',#636,#634,#300,.T.);
#781=EDGE_CURVE('',#635,#636,#301,.T.);
#782=EDGE_CURVE('',#637,#635,#302,.T.);
#783=EDGE_CURVE('',#638,#636,#303,.T.);
#784=EDGE_CURVE('',#637,#638,#304,.T.);
#785=EDGE_CURVE('',#637,#631,#305,.T.);
#786=EDGE_CURVE('',#633,#638,#306,.T.);
#787=EDGE_CURVE('',#639,#640,#307,.T.);
#788=EDGE_CURVE('',#639,#641,#308,.T.);
#789=EDGE_CURVE('',#642,#641,#309,.T.);
#790=EDGE_CURVE('',#640,#642,#310,.T.);
#791=EDGE_CURVE('',#640,#643,#311,.T.);
#792=EDGE_CURVE('',#644,#642,#312,.T.);
#793=EDGE_CURVE('',#643,#644,#313,.T.);
#794=EDGE_CURVE('',#643,#645,#314,.T.);
#795=EDGE_CURVE('',#646,#644,#315,.T.);
#796=EDGE_CURVE('',#645,#646,#316,.T.);
#797=EDGE_CURVE('',#645,#639,#317,.T.);
#798=EDGE_CURVE('',#641,#646,#318,.T.);
#799=EDGE_CURVE('',#647,#648,#319,.T.);
#800=EDGE_CURVE('',#647,#649,#320,.T.);
#801=EDGE_CURVE('',#650,#649,#321,.T.);
#802=EDGE_CURVE('',#648,#650,#322,.T.);
#803=EDGE_CURVE('',#648,#651,#323,.T.);
#804=EDGE_CURVE('',#652,#650,#324,.T.);
#805=EDGE_CURVE('',#651,#652,#325,.T.);
#806=EDGE_CURVE('',#651,#653,#326,.T.);
#807=EDGE_CURVE('',#654,#652,#327,.T.);
#808=EDGE_CURVE('',#653,#654,#328,.T.);
#809=EDGE_CURVE('',#653,#647,#329,.T.);
#810=EDGE_CURVE('',#649,#654,#330,.T.);
#811=EDGE_CURVE('',#655,#656,#331,.T.);
#812=EDGE_CURVE('',#655,#657,#332,.T.);
#813=EDGE_CURVE('',#658,#657,#333,.T.);
#814=EDGE_CURVE('',#656,#658,#334,.T.);
#815=EDGE_CURVE('',#656,#659,#335,.T.);
#816=EDGE_CURVE('',#660,#658,#336,.T.);
#817=EDGE_CURVE('',#659,#660,#337,.T.);
#818=EDGE_CURVE('',#659,#661,#338,.T.);
#819=EDGE_CURVE('',#662,#660,#339,.T.);
#820=EDGE_CURVE('',#661,#662,#340,.T.);
#821=EDGE_CURVE('',#661,#655,#341,.T.);
#822=EDGE_CURVE('',#657,#662,#342,.T.);
#823=EDGE_CURVE('',#663,#664,#343,.T.);
#824=EDGE_CURVE('',#663,#665,#344,.T.);
#825=EDGE_CURVE('',#666,#665,#345,.T.);
#826=EDGE_CURVE('',#664,#666,#346,.T.);
#827=EDGE_CURVE('',#664,#667,#347,.T.);
#828=EDGE_CURVE('',#668,#666,#348,.T.);
#829=EDGE_CURVE('',#667,#668,#349,.T.);
#830=EDGE_CURVE('',#667,#669,#350,.T.);
#831=EDGE_CURVE('',#670,#668,#351,.T.);
#832=EDGE_CURVE('',#669,#670,#352,.T.);
#833=EDGE_CURVE('',#669,#663,#353,.T.);
#834=EDGE_CURVE('',#665,#670,#354,.T.);
#835=EDGE_CURVE('',#671,#672,#355,.T.);
#836=EDGE_CURVE('',#671,#673,#356,.T.);
#837=EDGE_CURVE('',#674,#673,#357,.T.);
#838=EDGE_CURVE('',#672,#674,#358,.T.);
#839=EDGE_CURVE('',#672,#675,#359,.T.);
#840=EDGE_CURVE('',#676,#674,#360,.T.);
#841=EDGE_CURVE('',#675,#676,#361,.T.);
#842=EDGE_CURVE('',#675,#677,#362,.T.);
#843=EDGE_CURVE('',#678,#676,#363,.T.);
#844=EDGE_CURVE('',#677,#678,#364,.T.);
#845=EDGE_CURVE('',#677,#671,#365,.T.);
#846=EDGE_CURVE('',#673,#678,#366,.T.);
#847=EDGE_CURVE('',#679,#680,#367,.T.);
#848=EDGE_CURVE('',#679,#681,#368,.T.);
#849=EDGE_CURVE('',#682,#681,#369,.T.);
#850=EDGE_CURVE('',#680,#682,#370,.T.);
#851=EDGE_CURVE('',#680,#683,#371,.T.);
#852=EDGE_CURVE('',#684,#682,#372,.T.);
#853=EDGE_CURVE('',#683,#684,#373,.T.);
#854=EDGE_CURVE('',#683,#685,#374,.T.);
#855=EDGE_CURVE('',#686,#684,#375,.T.);
#856=EDGE_CURVE('',#685,#686,#376,.T.);
#857=EDGE_CURVE('',#685,#679,#377,.T.);
#858=EDGE_CURVE('',#681,#686,#378,.T.);
#859=EDGE_CURVE('',#687,#688,#379,.T.);
#860=EDGE_CURVE('',#687,#689,#380,.T.);
#861=EDGE_CURVE('',#690,#689,#381,.T.);
#862=EDGE_CURVE('',#688,#690,#382,.T.);
#863=EDGE_CURVE('',#691,#688,#383,.T.);
#864=EDGE_CURVE('',#692,#690,#384,.T.);
#865=EDGE_CURVE('',#691,#692,#385,.T.);
#866=EDGE_CURVE('',#691,#693,#386,.T.);
#867=EDGE_CURVE('',#694,#692,#387,.T.);
#868=EDGE_CURVE('',#693,#694,#388,.T.);
#869=EDGE_CURVE('',#687,#693,#389,.T.);
#870=EDGE_CURVE('',#689,#694,#390,.T.);
#871=EDGE_CURVE('',#695,#696,#391,.T.);
#872=EDGE_CURVE('',#695,#697,#392,.T.);
#873=EDGE_CURVE('',#698,#697,#393,.T.);
#874=EDGE_CURVE('',#696,#698,#394,.T.);
#875=EDGE_CURVE('',#696,#699,#395,.T.);
#876=EDGE_CURVE('',#700,#698,#396,.T.);
#877=EDGE_CURVE('',#699,#700,#397,.T.);
#878=EDGE_CURVE('',#699,#701,#398,.T.);
#879=EDGE_CURVE('',#702,#700,#399,.T.);
#880=EDGE_CURVE('',#701,#702,#400,.T.);
#881=EDGE_CURVE('',#701,#695,#401,.T.);
#882=EDGE_CURVE('',#697,#702,#402,.T.);
#883=ORIENTED_EDGE('',*,*,#703,.T.);
#884=ORIENTED_EDGE('',*,*,#704,.T.);
#885=ORIENTED_EDGE('',*,*,#705,.F.);
#886=ORIENTED_EDGE('',*,*,#706,.F.);
#887=ORIENTED_EDGE('',*,*,#707,.T.);
#888=ORIENTED_EDGE('',*,*,#706,.T.);
#889=ORIENTED_EDGE('',*,*,#708,.F.);
#890=ORIENTED_EDGE('',*,*,#709,.F.);
#891=ORIENTED_EDGE('',*,*,#710,.T.);
#892=ORIENTED_EDGE('',*,*,#709,.T.);
#893=ORIENTED_EDGE('',*,*,#711,.F.);
#894=ORIENTED_EDGE('',*,*,#712,.F.);
#895=ORIENTED_EDGE('',*,*,#713,.T.);
#896=ORIENTED_EDGE('',*,*,#712,.T.);
#897=ORIENTED_EDGE('',*,*,#714,.F.);
#898=ORIENTED_EDGE('',*,*,#704,.F.);
#899=ORIENTED_EDGE('',*,*,#714,.T.);
#900=ORIENTED_EDGE('',*,*,#711,.T.);
#901=ORIENTED_EDGE('',*,*,#708,.T.);
#902=ORIENTED_EDGE('',*,*,#705,.T.);
#903=ORIENTED_EDGE('',*,*,#713,.F.);
#904=ORIENTED_EDGE('',*,*,#703,.F.);
#905=ORIENTED_EDGE('',*,*,#707,.F.);
#906=ORIENTED_EDGE('',*,*,#710,.F.);
#907=ORIENTED_EDGE('',*,*,#715,.F.);
#908=ORIENTED_EDGE('',*,*,#716,.T.);
#909=ORIENTED_EDGE('',*,*,#717,.F.);
#910=ORIENTED_EDGE('',*,*,#718,.F.);
#911=ORIENTED_EDGE('',*,*,#719,.F.);
#912=ORIENTED_EDGE('',*,*,#718,.T.);
#913=ORIENTED_EDGE('',*,*,#720,.F.);
#914=ORIENTED_EDGE('',*,*,#721,.F.);
#915=ORIENTED_EDGE('',*,*,#722,.F.);
#916=ORIENTED_EDGE('',*,*,#721,.T.);
#917=ORIENTED_EDGE('',*,*,#723,.F.);
#918=ORIENTED_EDGE('',*,*,#724,.F.);
#919=ORIENTED_EDGE('',*,*,#725,.F.);
#920=ORIENTED_EDGE('',*,*,#724,.T.);
#921=ORIENTED_EDGE('',*,*,#726,.F.);
#922=ORIENTED_EDGE('',*,*,#716,.F.);
#923=ORIENTED_EDGE('',*,*,#726,.T.);
#924=ORIENTED_EDGE('',*,*,#723,.T.);
#925=ORIENTED_EDGE('',*,*,#720,.T.);
#926=ORIENTED_EDGE('',*,*,#717,.T.);
#927=ORIENTED_EDGE('',*,*,#725,.T.);
#928=ORIENTED_EDGE('',*,*,#715,.T.);
#929=ORIENTED_EDGE('',*,*,#719,.T.);
#930=ORIENTED_EDGE('',*,*,#722,.T.);
#931=ORIENTED_EDGE('',*,*,#727,.F.);
#932=ORIENTED_EDGE('',*,*,#728,.T.);
#933=ORIENTED_EDGE('',*,*,#729,.F.);
#934=ORIENTED_EDGE('',*,*,#730,.F.);
#935=ORIENTED_EDGE('',*,*,#731,.F.);
#936=ORIENTED_EDGE('',*,*,#730,.T.);
#937=ORIENTED_EDGE('',*,*,#732,.F.);
#938=ORIENTED_EDGE('',*,*,#733,.F.);
#939=ORIENTED_EDGE('',*,*,#734,.F.);
#940=ORIENTED_EDGE('',*,*,#733,.T.);
#941=ORIENTED_EDGE('',*,*,#735,.F.);
#942=ORIENTED_EDGE('',*,*,#736,.F.);
#943=ORIENTED_EDGE('',*,*,#737,.F.);
#944=ORIENTED_EDGE('',*,*,#736,.T.);
#945=ORIENTED_EDGE('',*,*,#738,.F.);
#946=ORIENTED_EDGE('',*,*,#728,.F.);
#947=ORIENTED_EDGE('',*,*,#738,.T.);
#948=ORIENTED_EDGE('',*,*,#735,.T.);
#949=ORIENTED_EDGE('',*,*,#732,.T.);
#950=ORIENTED_EDGE('',*,*,#729,.T.);
#951=ORIENTED_EDGE('',*,*,#737,.T.);
#952=ORIENTED_EDGE('',*,*,#727,.T.);
#953=ORIENTED_EDGE('',*,*,#731,.T.);
#954=ORIENTED_EDGE('',*,*,#734,.T.);
#955=ORIENTED_EDGE('',*,*,#739,.F.);
#956=ORIENTED_EDGE('',*,*,#740,.T.);
#957=ORIENTED_EDGE('',*,*,#741,.F.);
#958=ORIENTED_EDGE('',*,*,#742,.F.);
#959=ORIENTED_EDGE('',*,*,#743,.F.);
#960=ORIENTED_EDGE('',*,*,#742,.T.);
#961=ORIENTED_EDGE('',*,*,#744,.F.);
#962=ORIENTED_EDGE('',*,*,#745,.F.);
#963=ORIENTED_EDGE('',*,*,#746,.T.);
#964=ORIENTED_EDGE('',*,*,#745,.T.);
#965=ORIENTED_EDGE('',*,*,#747,.F.);
#966=ORIENTED_EDGE('',*,*,#748,.F.);
#967=ORIENTED_EDGE('',*,*,#749,.F.);
#968=ORIENTED_EDGE('',*,*,#748,.T.);
#969=ORIENTED_EDGE('',*,*,#750,.F.);
#970=ORIENTED_EDGE('',*,*,#740,.F.);
#971=ORIENTED_EDGE('',*,*,#750,.T.);
#972=ORIENTED_EDGE('',*,*,#747,.T.);
#973=ORIENTED_EDGE('',*,*,#744,.T.);
#974=ORIENTED_EDGE('',*,*,#741,.T.);
#975=ORIENTED_EDGE('',*,*,#749,.T.);
#976=ORIENTED_EDGE('',*,*,#739,.T.);
#977=ORIENTED_EDGE('',*,*,#743,.T.);
#978=ORIENTED_EDGE('',*,*,#746,.F.);
#979=ORIENTED_EDGE('',*,*,#751,.T.);
#980=ORIENTED_EDGE('',*,*,#752,.T.);
#981=ORIENTED_EDGE('',*,*,#753,.F.);
#982=ORIENTED_EDGE('',*,*,#754,.F.);
#983=ORIENTED_EDGE('',*,*,#755,.T.);
#984=ORIENTED_EDGE('',*,*,#754,.T.);
#985=ORIENTED_EDGE('',*,*,#756,.F.);
#986=ORIENTED_EDGE('',*,*,#757,.F.);
#987=ORIENTED_EDGE('',*,*,#758,.T.);
#988=ORIENTED_EDGE('',*,*,#757,.T.);
#989=ORIENTED_EDGE('',*,*,#759,.F.);
#990=ORIENTED_EDGE('',*,*,#760,.F.);
#991=ORIENTED_EDGE('',*,*,#761,.T.);
#992=ORIENTED_EDGE('',*,*,#760,.T.);
#993=ORIENTED_EDGE('',*,*,#762,.F.);
#994=ORIENTED_EDGE('',*,*,#752,.F.);
#995=ORIENTED_EDGE('',*,*,#762,.T.);
#996=ORIENTED_EDGE('',*,*,#759,.T.);
#997=ORIENTED_EDGE('',*,*,#756,.T.);
#998=ORIENTED_EDGE('',*,*,#753,.T.);
#999=ORIENTED_EDGE('',*,*,#761,.F.);
#1000=ORIENTED_EDGE('',*,*,#751,.F.);
#1001=ORIENTED_EDGE('',*,*,#755,.F.);
#1002=ORIENTED_EDGE('',*,*,#758,.F.);
#1003=ORIENTED_EDGE('',*,*,#763,.F.);
#1004=ORIENTED_EDGE('',*,*,#764,.T.);
#1005=ORIENTED_EDGE('',*,*,#765,.F.);
#1006=ORIENTED_EDGE('',*,*,#766,.F.);
#1007=ORIENTED_EDGE('',*,*,#767,.F.);
#1008=ORIENTED_EDGE('',*,*,#766,.T.);
#1009=ORIENTED_EDGE('',*,*,#768,.F.);
#1010=ORIENTED_EDGE('',*,*,#769,.F.);
#1011=ORIENTED_EDGE('',*,*,#770,.F.);
#1012=ORIENTED_EDGE('',*,*,#769,.T.);
#1013=ORIENTED_EDGE('',*,*,#771,.F.);
#1014=ORIENTED_EDGE('',*,*,#772,.F.);
#1015=ORIENTED_EDGE('',*,*,#773,.T.);
#1016=ORIENTED_EDGE('',*,*,#772,.T.);
#1017=ORIENTED_EDGE('',*,*,#774,.F.);
#1018=ORIENTED_EDGE('',*,*,#764,.F.);
#1019=ORIENTED_EDGE('',*,*,#774,.T.);
#1020=ORIENTED_EDGE('',*,*,#771,.T.);
#1021=ORIENTED_EDGE('',*,*,#768,.T.);
#1022=ORIENTED_EDGE('',*,*,#765,.T.);
#1023=ORIENTED_EDGE('',*,*,#773,.F.);
#1024=ORIENTED_EDGE('',*,*,#763,.T.);
#1025=ORIENTED_EDGE('',*,*,#767,.T.);
#1026=ORIENTED_EDGE('',*,*,#770,.T.);
#1027=ORIENTED_EDGE('',*,*,#775,.F.);
#1028=ORIENTED_EDGE('',*,*,#776,.T.);
#1029=ORIENTED_EDGE('',*,*,#777,.F.);
#1030=ORIENTED_EDGE('',*,*,#778,.F.);
#1031=ORIENTED_EDGE('',*,*,#779,.F.);
#1032=ORIENTED_EDGE('',*,*,#778,.T.);
#1033=ORIENTED_EDGE('',*,*,#780,.F.);
#1034=ORIENTED_EDGE('',*,*,#781,.F.);
#1035=ORIENTED_EDGE('',*,*,#782,.T.);
#1036=ORIENTED_EDGE('',*,*,#781,.T.);
#1037=ORIENTED_EDGE('',*,*,#783,.F.);
#1038=ORIENTED_EDGE('',*,*,#784,.F.);
#1039=ORIENTED_EDGE('',*,*,#785,.F.);
#1040=ORIENTED_EDGE('',*,*,#784,.T.);
#1041=ORIENTED_EDGE('',*,*,#786,.F.);
#1042=ORIENTED_EDGE('',*,*,#776,.F.);
#1043=ORIENTED_EDGE('',*,*,#786,.T.);
#1044=ORIENTED_EDGE('',*,*,#783,.T.);
#1045=ORIENTED_EDGE('',*,*,#780,.T.);
#1046=ORIENTED_EDGE('',*,*,#777,.T.);
#1047=ORIENTED_EDGE('',*,*,#785,.T.);
#1048=ORIENTED_EDGE('',*,*,#775,.T.);
#1049=ORIENTED_EDGE('',*,*,#779,.T.);
#1050=ORIENTED_EDGE('',*,*,#782,.F.);
#1051=ORIENTED_EDGE('',*,*,#787,.F.);
#1052=ORIENTED_EDGE('',*,*,#788,.T.);
#1053=ORIENTED_EDGE('',*,*,#789,.F.);
#1054=ORIENTED_EDGE('',*,*,#790,.F.);
#1055=ORIENTED_EDGE('',*,*,#791,.F.);
#1056=ORIENTED_EDGE('',*,*,#790,.T.);
#1057=ORIENTED_EDGE('',*,*,#792,.F.);
#1058=ORIENTED_EDGE('',*,*,#793,.F.);
#1059=ORIENTED_EDGE('',*,*,#794,.F.);
#1060=ORIENTED_EDGE('',*,*,#793,.T.);
#1061=ORIENTED_EDGE('',*,*,#795,.F.);
#1062=ORIENTED_EDGE('',*,*,#796,.F.);
#1063=ORIENTED_EDGE('',*,*,#797,.F.);
#1064=ORIENTED_EDGE('',*,*,#796,.T.);
#1065=ORIENTED_EDGE('',*,*,#798,.F.);
#1066=ORIENTED_EDGE('',*,*,#788,.F.);
#1067=ORIENTED_EDGE('',*,*,#798,.T.);
#1068=ORIENTED_EDGE('',*,*,#795,.T.);
#1069=ORIENTED_EDGE('',*,*,#792,.T.);
#1070=ORIENTED_EDGE('',*,*,#789,.T.);
#1071=ORIENTED_EDGE('',*,*,#797,.T.);
#1072=ORIENTED_EDGE('',*,*,#787,.T.);
#1073=ORIENTED_EDGE('',*,*,#791,.T.);
#1074=ORIENTED_EDGE('',*,*,#794,.T.);
#1075=ORIENTED_EDGE('',*,*,#799,.F.);
#1076=ORIENTED_EDGE('',*,*,#800,.T.);
#1077=ORIENTED_EDGE('',*,*,#801,.F.);
#1078=ORIENTED_EDGE('',*,*,#802,.F.);
#1079=ORIENTED_EDGE('',*,*,#803,.F.);
#1080=ORIENTED_EDGE('',*,*,#802,.T.);
#1081=ORIENTED_EDGE('',*,*,#804,.F.);
#1082=ORIENTED_EDGE('',*,*,#805,.F.);
#1083=ORIENTED_EDGE('',*,*,#806,.F.);
#1084=ORIENTED_EDGE('',*,*,#805,.T.);
#1085=ORIENTED_EDGE('',*,*,#807,.F.);
#1086=ORIENTED_EDGE('',*,*,#808,.F.);
#1087=ORIENTED_EDGE('',*,*,#809,.F.);
#1088=ORIENTED_EDGE('',*,*,#808,.T.);
#1089=ORIENTED_EDGE('',*,*,#810,.F.);
#1090=ORIENTED_EDGE('',*,*,#800,.F.);
#1091=ORIENTED_EDGE('',*,*,#810,.T.);
#1092=ORIENTED_EDGE('',*,*,#807,.T.);
#1093=ORIENTED_EDGE('',*,*,#804,.T.);
#1094=ORIENTED_EDGE('',*,*,#801,.T.);
#1095=ORIENTED_EDGE('',*,*,#809,.T.);
#1096=ORIENTED_EDGE('',*,*,#799,.T.);
#1097=ORIENTED_EDGE('',*,*,#803,.T.);
#1098=ORIENTED_EDGE('',*,*,#806,.T.);
#1099=ORIENTED_EDGE('',*,*,#811,.F.);
#1100=ORIENTED_EDGE('',*,*,#812,.T.);
#1101=ORIENTED_EDGE('',*,*,#813,.F.);
#1102=ORIENTED_EDGE('',*,*,#814,.F.);
#1103=ORIENTED_EDGE('',*,*,#815,.F.);
#1104=ORIENTED_EDGE('',*,*,#814,.T.);
#1105=ORIENTED_EDGE('',*,*,#816,.F.);
#1106=ORIENTED_EDGE('',*,*,#817,.F.);
#1107=ORIENTED_EDGE('',*,*,#818,.F.);
#1108=ORIENTED_EDGE('',*,*,#817,.T.);
#1109=ORIENTED_EDGE('',*,*,#819,.F.);
#1110=ORIENTED_EDGE('',*,*,#820,.F.);
#1111=ORIENTED_EDGE('',*,*,#821,.F.);
#1112=ORIENTED_EDGE('',*,*,#820,.T.);
#1113=ORIENTED_EDGE('',*,*,#822,.F.);
#1114=ORIENTED_EDGE('',*,*,#812,.F.);
#1115=ORIENTED_EDGE('',*,*,#822,.T.);
#1116=ORIENTED_EDGE('',*,*,#819,.T.);
#1117=ORIENTED_EDGE('',*,*,#816,.T.);
#1118=ORIENTED_EDGE('',*,*,#813,.T.);
#1119=ORIENTED_EDGE('',*,*,#821,.T.);
#1120=ORIENTED_EDGE('',*,*,#811,.T.);
#1121=ORIENTED_EDGE('',*,*,#815,.T.);
#1122=ORIENTED_EDGE('',*,*,#818,.T.);
#1123=ORIENTED_EDGE('',*,*,#823,.F.);
#1124=ORIENTED_EDGE('',*,*,#824,.T.);
#1125=ORIENTED_EDGE('',*,*,#825,.F.);
#1126=ORIENTED_EDGE('',*,*,#826,.F.);
#1127=ORIENTED_EDGE('',*,*,#827,.F.);
#1128=ORIENTED_EDGE('',*,*,#826,.T.);
#1129=ORIENTED_EDGE('',*,*,#828,.F.);
#1130=ORIENTED_EDGE('',*,*,#829,.F.);
#1131=ORIENTED_EDGE('',*,*,#830,.F.);
#1132=ORIENTED_EDGE('',*,*,#829,.T.);
#1133=ORIENTED_EDGE('',*,*,#831,.F.);
#1134=ORIENTED_EDGE('',*,*,#832,.F.);
#1135=ORIENTED_EDGE('',*,*,#833,.F.);
#1136=ORIENTED_EDGE('',*,*,#832,.T.);
#1137=ORIENTED_EDGE('',*,*,#834,.F.);
#1138=ORIENTED_EDGE('',*,*,#824,.F.);
#1139=ORIENTED_EDGE('',*,*,#834,.T.);
#1140=ORIENTED_EDGE('',*,*,#831,.T.);
#1141=ORIENTED_EDGE('',*,*,#828,.T.);
#1142=ORIENTED_EDGE('',*,*,#825,.T.);
#1143=ORIENTED_EDGE('',*,*,#833,.T.);
#1144=ORIENTED_EDGE('',*,*,#823,.T.);
#1145=ORIENTED_EDGE('',*,*,#827,.T.);
#1146=ORIENTED_EDGE('',*,*,#830,.T.);
#1147=ORIENTED_EDGE('',*,*,#835,.F.);
#1148=ORIENTED_EDGE('',*,*,#836,.T.);
#1149=ORIENTED_EDGE('',*,*,#837,.F.);
#1150=ORIENTED_EDGE('',*,*,#838,.F.);
#1151=ORIENTED_EDGE('',*,*,#839,.F.);
#1152=ORIENTED_EDGE('',*,*,#838,.T.);
#1153=ORIENTED_EDGE('',*,*,#840,.F.);
#1154=ORIENTED_EDGE('',*,*,#841,.F.);
#1155=ORIENTED_EDGE('',*,*,#842,.F.);
#1156=ORIENTED_EDGE('',*,*,#841,.T.);
#1157=ORIENTED_EDGE('',*,*,#843,.F.);
#1158=ORIENTED_EDGE('',*,*,#844,.F.);
#1159=ORIENTED_EDGE('',*,*,#845,.F.);
#1160=ORIENTED_EDGE('',*,*,#844,.T.);
#1161=ORIENTED_EDGE('',*,*,#846,.F.);
#1162=ORIENTED_EDGE('',*,*,#836,.F.);
#1163=ORIENTED_EDGE('',*,*,#846,.T.);
#1164=ORIENTED_EDGE('',*,*,#843,.T.);
#1165=ORIENTED_EDGE('',*,*,#840,.T.);
#1166=ORIENTED_EDGE('',*,*,#837,.T.);
#1167=ORIENTED_EDGE('',*,*,#845,.T.);
#1168=ORIENTED_EDGE('',*,*,#835,.T.);
#1169=ORIENTED_EDGE('',*,*,#839,.T.);
#1170=ORIENTED_EDGE('',*,*,#842,.T.);
#1171=ORIENTED_EDGE('',*,*,#847,.F.);
#1172=ORIENTED_EDGE('',*,*,#848,.T.);
#1173=ORIENTED_EDGE('',*,*,#849,.F.);
#1174=ORIENTED_EDGE('',*,*,#850,.F.);
#1175=ORIENTED_EDGE('',*,*,#851,.F.);
#1176=ORIENTED_EDGE('',*,*,#850,.T.);
#1177=ORIENTED_EDGE('',*,*,#852,.F.);
#1178=ORIENTED_EDGE('',*,*,#853,.F.);
#1179=ORIENTED_EDGE('',*,*,#854,.F.);
#1180=ORIENTED_EDGE('',*,*,#853,.T.);
#1181=ORIENTED_EDGE('',*,*,#855,.F.);
#1182=ORIENTED_EDGE('',*,*,#856,.F.);
#1183=ORIENTED_EDGE('',*,*,#857,.F.);
#1184=ORIENTED_EDGE('',*,*,#856,.T.);
#1185=ORIENTED_EDGE('',*,*,#858,.F.);
#1186=ORIENTED_EDGE('',*,*,#848,.F.);
#1187=ORIENTED_EDGE('',*,*,#858,.T.);
#1188=ORIENTED_EDGE('',*,*,#855,.T.);
#1189=ORIENTED_EDGE('',*,*,#852,.T.);
#1190=ORIENTED_EDGE('',*,*,#849,.T.);
#1191=ORIENTED_EDGE('',*,*,#857,.T.);
#1192=ORIENTED_EDGE('',*,*,#847,.T.);
#1193=ORIENTED_EDGE('',*,*,#851,.T.);
#1194=ORIENTED_EDGE('',*,*,#854,.T.);
#1195=ORIENTED_EDGE('',*,*,#859,.F.);
#1196=ORIENTED_EDGE('',*,*,#860,.T.);
#1197=ORIENTED_EDGE('',*,*,#861,.F.);
#1198=ORIENTED_EDGE('',*,*,#862,.F.);
#1199=ORIENTED_EDGE('',*,*,#863,.T.);
#1200=ORIENTED_EDGE('',*,*,#862,.T.);
#1201=ORIENTED_EDGE('',*,*,#864,.F.);
#1202=ORIENTED_EDGE('',*,*,#865,.F.);
#1203=ORIENTED_EDGE('',*,*,#866,.F.);
#1204=ORIENTED_EDGE('',*,*,#865,.T.);
#1205=ORIENTED_EDGE('',*,*,#867,.F.);
#1206=ORIENTED_EDGE('',*,*,#868,.F.);
#1207=ORIENTED_EDGE('',*,*,#869,.T.);
#1208=ORIENTED_EDGE('',*,*,#868,.T.);
#1209=ORIENTED_EDGE('',*,*,#870,.F.);
#1210=ORIENTED_EDGE('',*,*,#860,.F.);
#1211=ORIENTED_EDGE('',*,*,#870,.T.);
#1212=ORIENTED_EDGE('',*,*,#867,.T.);
#1213=ORIENTED_EDGE('',*,*,#864,.T.);
#1214=ORIENTED_EDGE('',*,*,#861,.T.);
#1215=ORIENTED_EDGE('',*,*,#869,.F.);
#1216=ORIENTED_EDGE('',*,*,#859,.T.);
#1217=ORIENTED_EDGE('',*,*,#863,.F.);
#1218=ORIENTED_EDGE('',*,*,#866,.T.);
#1219=ORIENTED_EDGE('',*,*,#871,.F.);
#1220=ORIENTED_EDGE('',*,*,#872,.T.);
#1221=ORIENTED_EDGE('',*,*,#873,.F.);
#1222=ORIENTED_EDGE('',*,*,#874,.F.);
#1223=ORIENTED_EDGE('',*,*,#875,.F.);
#1224=ORIENTED_EDGE('',*,*,#874,.T.);
#1225=ORIENTED_EDGE('',*,*,#876,.F.);
#1226=ORIENTED_EDGE('',*,*,#877,.F.);
#1227=ORIENTED_EDGE('',*,*,#878,.F.);
#1228=ORIENTED_EDGE('',*,*,#877,.T.);
#1229=ORIENTED_EDGE('',*,*,#879,.F.);
#1230=ORIENTED_EDGE('',*,*,#880,.F.);
#1231=ORIENTED_EDGE('',*,*,#881,.F.);
#1232=ORIENTED_EDGE('',*,*,#880,.T.);
#1233=ORIENTED_EDGE('',*,*,#882,.F.);
#1234=ORIENTED_EDGE('',*,*,#872,.F.);
#1235=ORIENTED_EDGE('',*,*,#882,.T.);
#1236=ORIENTED_EDGE('',*,*,#879,.T.);
#1237=ORIENTED_EDGE('',*,*,#876,.T.);
#1238=ORIENTED_EDGE('',*,*,#873,.T.);
#1239=ORIENTED_EDGE('',*,*,#881,.T.);
#1240=ORIENTED_EDGE('',*,*,#871,.T.);
#1241=ORIENTED_EDGE('',*,*,#875,.T.);
#1242=ORIENTED_EDGE('',*,*,#878,.T.);
#1243=PLANE('',#1451);
#1244=PLANE('',#1452);
#1245=PLANE('',#1453);
#1246=PLANE('',#1454);
#1247=PLANE('',#1455);
#1248=PLANE('',#1456);
#1249=PLANE('',#1457);
#1250=PLANE('',#1458);
#1251=PLANE('',#1459);
#1252=PLANE('',#1460);
#1253=PLANE('',#1461);
#1254=PLANE('',#1462);
#1255=PLANE('',#1463);
#1256=PLANE('',#1464);
#1257=PLANE('',#1465);
#1258=PLANE('',#1466);
#1259=PLANE('',#1467);
#1260=PLANE('',#1468);
#1261=PLANE('',#1469);
#1262=PLANE('',#1470);
#1263=PLANE('',#1471);
#1264=PLANE('',#1472);
#1265=PLANE('',#1473);
#1266=PLANE('',#1474);
#1267=PLANE('',#1475);
#1268=PLANE('',#1476);
#1269=PLANE('',#1477);
#1270=PLANE('',#1478);
#1271=PLANE('',#1479);
#1272=PLANE('',#1480);
#1273=PLANE('',#1481);
#1274=PLANE('',#1482);
#1275=PLANE('',#1483);
#1276=PLANE('',#1484);
#1277=PLANE('',#1485);
#1278=PLANE('',#1486);
#1279=PLANE('',#1487);
#1280=PLANE('',#1488);
#1281=PLANE('',#1489);
#1282=PLANE('',#1490);
#1283=PLANE('',#1491);
#1284=PLANE('',#1492);
#1285=PLANE('',#1493);
#1286=PLANE('',#1494);
#1287=PLANE('',#1495);
#1288=PLANE('',#1496);
#1289=PLANE('',#1497);
#1290=PLANE('',#1498);
#1291=PLANE('',#1499);
#1292=PLANE('',#1500);
#1293=PLANE('',#1501);
#1294=PLANE('',#1502);
#1295=PLANE('',#1503);
#1296=PLANE('',#1504);
#1297=PLANE('',#1505);
#1298=PLANE('',#1506);
#1299=PLANE('',#1507);
#1300=PLANE('',#1508);
#1301=PLANE('',#1509);
#1302=PLANE('',#1510);
#1303=PLANE('',#1511);
#1304=PLANE('',#1512);
#1305=PLANE('',#1513);
#1306=PLANE('',#1514);
#1307=PLANE('',#1515);
#1308=PLANE('',#1516);
#1309=PLANE('',#1517);
#1310=PLANE('',#1518);
#1311=PLANE('',#1519);
#1312=PLANE('',#1520);
#1313=PLANE('',#1521);
#1314=PLANE('',#1522);
#1315=PLANE('',#1523);
#1316=PLANE('',#1524);
#1317=PLANE('',#1525);
#1318=PLANE('',#1526);
#1319=PLANE('',#1527);
#1320=PLANE('',#1528);
#1321=PLANE('',#1529);
#1322=PLANE('',#1530);
#1323=PLANE('',#1531);
#1324=PLANE('',#1532);
#1325=PLANE('',#1533);
#1326=PLANE('',#1534);
#1327=PLANE('',#1535);
#1328=PLANE('',#1536);
#1329=PLANE('',#1537);
#1330=PLANE('',#1538);
#1331=PLANE('',#1539);
#1332=PLANE('',#1540);
#1333=ADVANCED_FACE('',(#43),#1243,.T.);
#1334=ADVANCED_FACE('',(#44),#1244,.T.);
#1335=ADVANCED_FACE('',(#45),#1245,.T.);
#1336=ADVANCED_FACE('',(#46),#1246,.T.);
#1337=ADVANCED_FACE('',(#47),#1247,.T.);
#1338=ADVANCED_FACE('',(#48),#1248,.F.);
#1339=ADVANCED_FACE('',(#49),#1249,.T.);
#1340=ADVANCED_FACE('',(#50),#1250,.T.);
#1341=ADVANCED_FACE('',(#51),#1251,.T.);
#1342=ADVANCED_FACE('',(#52),#1252,.T.);
#1343=ADVANCED_FACE('',(#53),#1253,.T.);
#1344=ADVANCED_FACE('',(#54),#1254,.F.);
#1345=ADVANCED_FACE('',(#55),#1255,.T.);
#1346=ADVANCED_FACE('',(#56),#1256,.T.);
#1347=ADVANCED_FACE('',(#57),#1257,.T.);
#1348=ADVANCED_FACE('',(#58),#1258,.T.);
#1349=ADVANCED_FACE('',(#59),#1259,.T.);
#1350=ADVANCED_FACE('',(#60),#1260,.F.);
#1351=ADVANCED_FACE('',(#61),#1261,.T.);
#1352=ADVANCED_FACE('',(#62),#1262,.T.);
#1353=ADVANCED_FACE('',(#63),#1263,.T.);
#1354=ADVANCED_FACE('',(#64),#1264,.T.);
#1355=ADVANCED_FACE('',(#65),#1265,.T.);
#1356=ADVANCED_FACE('',(#66),#1266,.F.);
#1357=ADVANCED_FACE('',(#67),#1267,.T.);
#1358=ADVANCED_FACE('',(#68),#1268,.T.);
#1359=ADVANCED_FACE('',(#69),#1269,.T.);
#1360=ADVANCED_FACE('',(#70),#1270,.T.);
#1361=ADVANCED_FACE('',(#71),#1271,.T.);
#1362=ADVANCED_FACE('',(#72),#1272,.F.);
#1363=ADVANCED_FACE('',(#73),#1273,.T.);
#1364=ADVANCED_FACE('',(#74),#1274,.T.);
#1365=ADVANCED_FACE('',(#75),#1275,.T.);
#1366=ADVANCED_FACE('',(#76),#1276,.T.);
#1367=ADVANCED_FACE('',(#77),#1277,.T.);
#1368=ADVANCED_FACE('',(#78),#1278,.F.);
#1369=ADVANCED_FACE('',(#79),#1279,.T.);
#1370=ADVANCED_FACE('',(#80),#1280,.T.);
#1371=ADVANCED_FACE('',(#81),#1281,.T.);
#1372=ADVANCED_FACE('',(#82),#1282,.T.);
#1373=ADVANCED_FACE('',(#83),#1283,.T.);
#1374=ADVANCED_FACE('',(#84),#1284,.F.);
#1375=ADVANCED_FACE('',(#85),#1285,.T.);
#1376=ADVANCED_FACE('',(#86),#1286,.T.);
#1377=ADVANCED_FACE('',(#87),#1287,.T.);
#1378=ADVANCED_FACE('',(#88),#1288,.T.);
#1379=ADVANCED_FACE('',(#89),#1289,.T.);
#1380=ADVANCED_FACE('',(#90),#1290,.F.);
#1381=ADVANCED_FACE('',(#91),#1291,.T.);
#1382=ADVANCED_FACE('',(#92),#1292,.T.);
#1383=ADVANCED_FACE('',(#93),#1293,.T.);
#1384=ADVANCED_FACE('',(#94),#1294,.T.);
#1385=ADVANCED_FACE('',(#95),#1295,.T.);
#1386=ADVANCED_FACE('',(#96),#1296,.F.);
#1387=ADVANCED_FACE('',(#97),#1297,.T.);
#1388=ADVANCED_FACE('',(#98),#1298,.T.);
#1389=ADVANCED_FACE('',(#99),#1299,.T.);
#1390=ADVANCED_FACE('',(#100),#1300,.T.);
#1391=ADVANCED_FACE('',(#101),#1301,.T.);
#1392=ADVANCED_FACE('',(#102),#1302,.F.);
#1393=ADVANCED_FACE('',(#103),#1303,.T.);
#1394=ADVANCED_FACE('',(#104),#1304,.T.);
#1395=ADVANCED_FACE('',(#105),#1305,.T.);
#1396=ADVANCED_FACE('',(#106),#1306,.T.);
#1397=ADVANCED_FACE('',(#107),#1307,.T.);
#1398=ADVANCED_FACE('',(#108),#1308,.F.);
#1399=ADVANCED_FACE('',(#109),#1309,.T.);
#1400=ADVANCED_FACE('',(#110),#1310,.T.);
#1401=ADVANCED_FACE('',(#111),#1311,.T.);
#1402=ADVANCED_FACE('',(#112),#1312,.T.);
#1403=ADVANCED_FACE('',(#113),#1313,.T.);
#1404=ADVANCED_FACE('',(#114),#1314,.F.);
#1405=ADVANCED_FACE('',(#115),#1315,.T.);
#1406=ADVANCED_FACE('',(#116),#1316,.T.);
#1407=ADVANCED_FACE('',(#117),#1317,.T.);
#1408=ADVANCED_FACE('',(#118),#1318,.T.);
#1409=ADVANCED_FACE('',(#119),#1319,.T.);
#1410=ADVANCED_FACE('',(#120),#1320,.F.);
#1411=ADVANCED_FACE('',(#121),#1321,.T.);
#1412=ADVANCED_FACE('',(#122),#1322,.T.);
#1413=ADVANCED_FACE('',(#123),#1323,.T.);
#1414=ADVANCED_FACE('',(#124),#1324,.T.);
#1415=ADVANCED_FACE('',(#125),#1325,.T.);
#1416=ADVANCED_FACE('',(#126),#1326,.F.);
#1417=ADVANCED_FACE('',(#127),#1327,.T.);
#1418=ADVANCED_FACE('',(#128),#1328,.T.);
#1419=ADVANCED_FACE('',(#129),#1329,.T.);
#1420=ADVANCED_FACE('',(#130),#1330,.T.);
#1421=ADVANCED_FACE('',(#131),#1331,.T.);
#1422=ADVANCED_FACE('',(#132),#1332,.F.);
#1423=CLOSED_SHELL('',(#1333,#1334,#1335,#1336,#1337,#1338));
#1424=CLOSED_SHELL('',(#1339,#1340,#1341,#1342,#1343,#1344));
#1425=CLOSED_SHELL('',(#1345,#1346,#1347,#1348,#1349,#1350));
#1426=CLOSED_SHELL('',(#1351,#1352,#1353,#1354,#1355,#1356));
#1427=CLOSED_SHELL('',(#1357,#1358,#1359,#1360,#1361,#1362));
#1428=CLOSED_SHELL('',(#1363,#1364,#1365,#1366,#1367,#1368));
#1429=CLOSED_SHELL('',(#1369,#1370,#1371,#1372,#1373,#1374));
#1430=CLOSED_SHELL('',(#1375,#1376,#1377,#1378,#1379,#1380));
#1431=CLOSED_SHELL('',(#1381,#1382,#1383,#1384,#1385,#1386));
#1432=CLOSED_SHELL('',(#1387,#1388,#1389,#1390,#1391,#1392));
#1433=CLOSED_SHELL('',(#1393,#1394,#1395,#1396,#1397,#1398));
#1434=CLOSED_SHELL('',(#1399,#1400,#1401,#1402,#1403,#1404));
#1435=CLOSED_SHELL('',(#1405,#1406,#1407,#1408,#1409,#1410));
#1436=CLOSED_SHELL('',(#1411,#1412,#1413,#1414,#1415,#1416));
#1437=CLOSED_SHELL('',(#1417,#1418,#1419,#1420,#1421,#1422));
#1438=DERIVED_UNIT_ELEMENT(#1440,1.);
#1439=DERIVED_UNIT_ELEMENT(#2299,-3.);
#1440=(
MASS_UNIT()
NAMED_UNIT(*)
SI_UNIT(.KILO.,.GRAM.)
);
#1441=DERIVED_UNIT((#1438,#1439));
#1442=MEASURE_REPRESENTATION_ITEM('density measure',
POSITIVE_RATIO_MEASURE(7850.),#1441);
#1443=PROPERTY_DEFINITION_REPRESENTATION(#1448,#1445);
#1444=PROPERTY_DEFINITION_REPRESENTATION(#1449,#1446);
#1445=REPRESENTATION('material name',(#1447),#2296);
#1446=REPRESENTATION('density',(#1442),#2296);
#1447=DESCRIPTIVE_REPRESENTATION_ITEM('Steel','Steel');
#1448=PROPERTY_DEFINITION('material property','material name',#2306);
#1449=PROPERTY_DEFINITION('material property','density of part',#2306);
#1450=AXIS2_PLACEMENT_3D('',#1903,#1541,#1542);
#1451=AXIS2_PLACEMENT_3D('',#1904,#1543,#1544);
#1452=AXIS2_PLACEMENT_3D('',#1913,#1549,#1550);
#1453=AXIS2_PLACEMENT_3D('',#1919,#1554,#1555);
#1454=AXIS2_PLACEMENT_3D('',#1925,#1559,#1560);
#1455=AXIS2_PLACEMENT_3D('',#1928,#1563,#1564);
#1456=AXIS2_PLACEMENT_3D('',#1929,#1565,#1566);
#1457=AXIS2_PLACEMENT_3D('',#1930,#1567,#1568);
#1458=AXIS2_PLACEMENT_3D('',#1939,#1573,#1574);
#1459=AXIS2_PLACEMENT_3D('',#1945,#1578,#1579);
#1460=AXIS2_PLACEMENT_3D('',#1951,#1583,#1584);
#1461=AXIS2_PLACEMENT_3D('',#1954,#1587,#1588);
#1462=AXIS2_PLACEMENT_3D('',#1955,#1589,#1590);
#1463=AXIS2_PLACEMENT_3D('',#1956,#1591,#1592);
#1464=AXIS2_PLACEMENT_3D('',#1965,#1597,#1598);
#1465=AXIS2_PLACEMENT_3D('',#1971,#1602,#1603);
#1466=AXIS2_PLACEMENT_3D('',#1977,#1607,#1608);
#1467=AXIS2_PLACEMENT_3D('',#1980,#1611,#1612);
#1468=AXIS2_PLACEMENT_3D('',#1981,#1613,#1614);
#1469=AXIS2_PLACEMENT_3D('',#1982,#1615,#1616);
#1470=AXIS2_PLACEMENT_3D('',#1991,#1621,#1622);
#1471=AXIS2_PLACEMENT_3D('',#1997,#1626,#1627);
#1472=AXIS2_PLACEMENT_3D('',#2003,#1631,#1632);
#1473=AXIS2_PLACEMENT_3D('',#2006,#1635,#1636);
#1474=AXIS2_PLACEMENT_3D('',#2007,#1637,#1638);
#1475=AXIS2_PLACEMENT_3D('',#2008,#1639,#1640);
#1476=AXIS2_PLACEMENT_3D('',#2017,#1645,#1646);
#1477=AXIS2_PLACEMENT_3D('',#2023,#1650,#1651);
#1478=AXIS2_PLACEMENT_3D('',#2029,#1655,#1656);
#1479=AXIS2_PLACEMENT_3D('',#2032,#1659,#1660);
#1480=AXIS2_PLACEMENT_3D('',#2033,#1661,#1662);
#1481=AXIS2_PLACEMENT_3D('',#2034,#1663,#1664);
#1482=AXIS2_PLACEMENT_3D('',#2043,#1669,#1670);
#1483=AXIS2_PLACEMENT_3D('',#2049,#1674,#1675);
#1484=AXIS2_PLACEMENT_3D('',#2055,#1679,#1680);
#1485=AXIS2_PLACEMENT_3D('',#2058,#1683,#1684);
#1486=AXIS2_PLACEMENT_3D('',#2059,#1685,#1686);
#1487=AXIS2_PLACEMENT_3D('',#2060,#1687,#1688);
#1488=AXIS2_PLACEMENT_3D('',#2069,#1693,#1694);
#1489=AXIS2_PLACEMENT_3D('',#2075,#1698,#1699);
#1490=AXIS2_PLACEMENT_3D('',#2081,#1703,#1704);
#1491=AXIS2_PLACEMENT_3D('',#2084,#1707,#1708);
#1492=AXIS2_PLACEMENT_3D('',#2085,#1709,#1710);
#1493=AXIS2_PLACEMENT_3D('',#2086,#1711,#1712);
#1494=AXIS2_PLACEMENT_3D('',#2095,#1717,#1718);
#1495=AXIS2_PLACEMENT_3D('',#2101,#1722,#1723);
#1496=AXIS2_PLACEMENT_3D('',#2107,#1727,#1728);
#1497=AXIS2_PLACEMENT_3D('',#2110,#1731,#1732);
#1498=AXIS2_PLACEMENT_3D('',#2111,#1733,#1734);
#1499=AXIS2_PLACEMENT_3D('',#2112,#1735,#1736);
#1500=AXIS2_PLACEMENT_3D('',#2121,#1741,#1742);
#1501=AXIS2_PLACEMENT_3D('',#2127,#1746,#1747);
#1502=AXIS2_PLACEMENT_3D('',#2133,#1751,#1752);
#1503=AXIS2_PLACEMENT_3D('',#2136,#1755,#1756);
#1504=AXIS2_PLACEMENT_3D('',#2137,#1757,#1758);
#1505=AXIS2_PLACEMENT_3D('',#2138,#1759,#1760);
#1506=AXIS2_PLACEMENT_3D('',#2147,#1765,#1766);
#1507=AXIS2_PLACEMENT_3D('',#2153,#1770,#1771);
#1508=AXIS2_PLACEMENT_3D('',#2159,#1775,#1776);
#1509=AXIS2_PLACEMENT_3D('',#2162,#1779,#1780);
#1510=AXIS2_PLACEMENT_3D('',#2163,#1781,#1782);
#1511=AXIS2_PLACEMENT_3D('',#2164,#1783,#1784);
#1512=AXIS2_PLACEMENT_3D('',#2173,#1789,#1790);
#1513=AXIS2_PLACEMENT_3D('',#2179,#1794,#1795);
#1514=AXIS2_PLACEMENT_3D('',#2185,#1799,#1800);
#1515=AXIS2_PLACEMENT_3D('',#2188,#1803,#1804);
#1516=AXIS2_PLACEMENT_3D('',#2189,#1805,#1806);
#1517=AXIS2_PLACEMENT_3D('',#2190,#1807,#1808);
#1518=AXIS2_PLACEMENT_3D('',#2199,#1813,#1814);
#1519=AXIS2_PLACEMENT_3D('',#2205,#1818,#1819);
#1520=AXIS2_PLACEMENT_3D('',#2211,#1823,#1824);
#1521=AXIS2_PLACEMENT_3D('',#2214,#1827,#1828);
#1522=AXIS2_PLACEMENT_3D('',#2215,#1829,#1830);
#1523=AXIS2_PLACEMENT_3D('',#2216,#1831,#1832);
#1524=AXIS2_PLACEMENT_3D('',#2225,#1837,#1838);
#1525=AXIS2_PLACEMENT_3D('',#2231,#1842,#1843);
#1526=AXIS2_PLACEMENT_3D('',#2237,#1847,#1848);
#1527=AXIS2_PLACEMENT_3D('',#2240,#1851,#1852);
#1528=AXIS2_PLACEMENT_3D('',#2241,#1853,#1854);
#1529=AXIS2_PLACEMENT_3D('',#2242,#1855,#1856);
#1530=AXIS2_PLACEMENT_3D('',#2251,#1861,#1862);
#1531=AXIS2_PLACEMENT_3D('',#2257,#1866,#1867);
#1532=AXIS2_PLACEMENT_3D('',#2263,#1871,#1872);
#1533=AXIS2_PLACEMENT_3D('',#2266,#1875,#1876);
#1534=AXIS2_PLACEMENT_3D('',#2267,#1877,#1878);
#1535=AXIS2_PLACEMENT_3D('',#2268,#1879,#1880);
#1536=AXIS2_PLACEMENT_3D('',#2277,#1885,#1886);
#1537=AXIS2_PLACEMENT_3D('',#2283,#1890,#1891);
#1538=AXIS2_PLACEMENT_3D('',#2289,#1895,#1896);
#1539=AXIS2_PLACEMENT_3D('',#2292,#1899,#1900);
#1540=AXIS2_PLACEMENT_3D('',#2293,#1901,#1902);
#1541=DIRECTION('axis',(0.,0.,1.));
#1542=DIRECTION('refdir',(1.,0.,0.));
#1543=DIRECTION('center_axis',(0.,0.,1.));
#1544=DIRECTION('ref_axis',(1.,0.,0.));
#1545=DIRECTION('',(1.,0.,0.));
#1546=DIRECTION('',(0.,1.,0.));
#1547=DIRECTION('',(1.,0.,0.));
#1548=DIRECTION('',(0.,1.,0.));
#1549=DIRECTION('center_axis',(-1.,0.,0.));
#1550=DIRECTION('ref_axis',(0.,0.,1.));
#1551=DIRECTION('',(0.,0.,1.));
#1552=DIRECTION('',(0.,0.,1.));
#1553=DIRECTION('',(0.,1.,0.));
#1554=DIRECTION('center_axis',(0.,0.,-1.));
#1555=DIRECTION('ref_axis',(-1.,0.,0.));
#1556=DIRECTION('',(-1.,0.,0.));
#1557=DIRECTION('',(-1.,0.,0.));
#1558=DIRECTION('',(0.,1.,0.));
#1559=DIRECTION('center_axis',(1.,0.,0.));
#1560=DIRECTION('ref_axis',(0.,0.,-1.));
#1561=DIRECTION('',(0.,0.,-1.));
#1562=DIRECTION('',(0.,0.,-1.));
#1563=DIRECTION('center_axis',(0.,1.,0.));
#1564=DIRECTION('ref_axis',(0.,0.,1.));
#1565=DIRECTION('center_axis',(0.,1.,0.));
#1566=DIRECTION('ref_axis',(1.,0.,0.));
#1567=DIRECTION('center_axis',(-1.,0.,0.));
#1568=DIRECTION('ref_axis',(0.,0.,1.));
#1569=DIRECTION('',(0.,0.,-1.));
#1570=DIRECTION('',(0.,1.,0.));
#1571=DIRECTION('',(0.,0.,1.));
#1572=DIRECTION('',(0.,1.,0.));
#1573=DIRECTION('center_axis',(0.,0.,-1.));
#1574=DIRECTION('ref_axis',(-1.,0.,0.));
#1575=DIRECTION('',(1.,0.,0.));
#1576=DIRECTION('',(-1.,0.,0.));
#1577=DIRECTION('',(0.,1.,0.));
#1578=DIRECTION('center_axis',(1.,0.,0.));
#1579=DIRECTION('ref_axis',(0.,0.,-1.));
#1580=DIRECTION('',(0.,0.,1.));
#1581=DIRECTION('',(0.,0.,-1.));
#1582=DIRECTION('',(0.,1.,0.));
#1583=DIRECTION('center_axis',(0.,0.,1.));
#1584=DIRECTION('ref_axis',(1.,0.,0.));
#1585=DIRECTION('',(-1.,0.,0.));
#1586=DIRECTION('',(1.,0.,0.));
#1587=DIRECTION('center_axis',(0.,1.,0.));
#1588=DIRECTION('ref_axis',(0.,0.,1.));
#1589=DIRECTION('center_axis',(0.,1.,0.));
#1590=DIRECTION('ref_axis',(1.,0.,0.));
#1591=DIRECTION('center_axis',(0.,0.,1.));
#1592=DIRECTION('ref_axis',(1.,0.,0.));
#1593=DIRECTION('',(-1.,0.,0.));
#1594=DIRECTION('',(0.,1.,0.));
#1595=DIRECTION('',(1.,0.,0.));
#1596=DIRECTION('',(0.,1.,0.));
#1597=DIRECTION('center_axis',(-1.,0.,0.));
#1598=DIRECTION('ref_axis',(0.,0.,1.));
#1599=DIRECTION('',(0.,0.,-1.));
#1600=DIRECTION('',(0.,0.,1.));
#1601=DIRECTION('',(0.,1.,0.));
#1602=DIRECTION('center_axis',(0.,0.,-1.));
#1603=DIRECTION('ref_axis',(-1.,0.,0.));
#1604=DIRECTION('',(1.,0.,0.));
#1605=DIRECTION('',(-1.,0.,0.));
#1606=DIRECTION('',(0.,1.,0.));
#1607=DIRECTION('center_axis',(1.,0.,0.));
#1608=DIRECTION('ref_axis',(0.,0.,-1.));
#1609=DIRECTION('',(0.,0.,1.));
#1610=DIRECTION('',(0.,0.,-1.));
#1611=DIRECTION('center_axis',(0.,1.,0.));
#1612=DIRECTION('ref_axis',(0.,0.,1.));
#1613=DIRECTION('center_axis',(0.,1.,0.));
#1614=DIRECTION('ref_axis',(1.,0.,0.));
#1615=DIRECTION('center_axis',(0.,0.,1.));
#1616=DIRECTION('ref_axis',(1.,0.,0.));
#1617=DIRECTION('',(-1.,0.,0.));
#1618=DIRECTION('',(0.,1.,0.));
#1619=DIRECTION('',(1.,0.,0.));
#1620=DIRECTION('',(0.,1.,0.));
#1621=DIRECTION('center_axis',(-1.,0.,0.));
#1622=DIRECTION('ref_axis',(0.,0.,1.));
#1623=DIRECTION('',(0.,0.,-1.));
#1624=DIRECTION('',(0.,0.,1.));
#1625=DIRECTION('',(0.,1.,0.));
#1626=DIRECTION('center_axis',(0.,0.,-1.));
#1627=DIRECTION('ref_axis',(-1.,0.,0.));
#1628=DIRECTION('',(-1.,0.,0.));
#1629=DIRECTION('',(-1.,0.,0.));
#1630=DIRECTION('',(0.,1.,0.));
#1631=DIRECTION('center_axis',(1.,0.,0.));
#1632=DIRECTION('ref_axis',(0.,0.,-1.));
#1633=DIRECTION('',(0.,0.,1.));
#1634=DIRECTION('',(0.,0.,-1.));
#1635=DIRECTION('center_axis',(0.,1.,0.));
#1636=DIRECTION('ref_axis',(0.,0.,1.));
#1637=DIRECTION('center_axis',(0.,1.,0.));
#1638=DIRECTION('ref_axis',(1.,0.,0.));
#1639=DIRECTION('center_axis',(0.,0.,-1.));
#1640=DIRECTION('ref_axis',(-1.,0.,0.));
#1641=DIRECTION('',(-1.,0.,0.));
#1642=DIRECTION('',(0.,1.,0.));
#1643=DIRECTION('',(-1.,0.,0.));
#1644=DIRECTION('',(0.,1.,0.));
#1645=DIRECTION('center_axis',(1.,0.,0.));
#1646=DIRECTION('ref_axis',(0.,0.,-1.));
#1647=DIRECTION('',(0.,0.,-1.));
#1648=DIRECTION('',(0.,0.,-1.));
#1649=DIRECTION('',(0.,1.,0.));
#1650=DIRECTION('center_axis',(0.,0.,1.));
#1651=DIRECTION('ref_axis',(1.,0.,0.));
#1652=DIRECTION('',(1.,0.,0.));
#1653=DIRECTION('',(1.,0.,0.));
#1654=DIRECTION('',(0.,1.,0.));
#1655=DIRECTION('center_axis',(-1.,0.,0.));
#1656=DIRECTION('ref_axis',(0.,0.,1.));
#1657=DIRECTION('',(0.,0.,1.));
#1658=DIRECTION('',(0.,0.,1.));
#1659=DIRECTION('center_axis',(0.,1.,0.));
#1660=DIRECTION('ref_axis',(0.,0.,1.));
#1661=DIRECTION('center_axis',(0.,1.,0.));
#1662=DIRECTION('ref_axis',(1.,0.,0.));
#1663=DIRECTION('center_axis',(0.,0.,-1.));
#1664=DIRECTION('ref_axis',(-1.,0.,0.));
#1665=DIRECTION('',(1.,0.,0.));
#1666=DIRECTION('',(0.,1.,0.));
#1667=DIRECTION('',(-1.,0.,0.));
#1668=DIRECTION('',(0.,1.,0.));
#1669=DIRECTION('center_axis',(1.,0.,0.));
#1670=DIRECTION('ref_axis',(0.,0.,-1.));
#1671=DIRECTION('',(0.,0.,1.));
#1672=DIRECTION('',(0.,0.,-1.));
#1673=DIRECTION('',(0.,1.,0.));
#1674=DIRECTION('center_axis',(0.,0.,1.));
#1675=DIRECTION('ref_axis',(1.,0.,0.));
#1676=DIRECTION('',(-1.,0.,0.));
#1677=DIRECTION('',(1.,0.,0.));
#1678=DIRECTION('',(0.,1.,0.));
#1679=DIRECTION('center_axis',(-1.,0.,0.));
#1680=DIRECTION('ref_axis',(0.,0.,1.));
#1681=DIRECTION('',(0.,0.,1.));
#1682=DIRECTION('',(0.,0.,1.));
#1683=DIRECTION('center_axis',(0.,1.,0.));
#1684=DIRECTION('ref_axis',(0.,0.,1.));
#1685=DIRECTION('center_axis',(0.,1.,0.));
#1686=DIRECTION('ref_axis',(1.,0.,0.));
#1687=DIRECTION('center_axis',(0.,0.,-1.));
#1688=DIRECTION('ref_axis',(-1.,0.,0.));
#1689=DIRECTION('',(1.,0.,0.));
#1690=DIRECTION('',(0.,1.,0.));
#1691=DIRECTION('',(-1.,0.,0.));
#1692=DIRECTION('',(0.,1.,0.));
#1693=DIRECTION('center_axis',(1.,0.,0.));
#1694=DIRECTION('ref_axis',(0.,0.,-1.));
#1695=DIRECTION('',(0.,0.,1.));
#1696=DIRECTION('',(0.,0.,-1.));
#1697=DIRECTION('',(0.,1.,0.));
#1698=DIRECTION('center_axis',(0.,0.,1.));
#1699=DIRECTION('ref_axis',(1.,0.,0.));
#1700=DIRECTION('',(1.,0.,0.));
#1701=DIRECTION('',(1.,0.,0.));
#1702=DIRECTION('',(0.,1.,0.));
#1703=DIRECTION('center_axis',(-1.,0.,0.));
#1704=DIRECTION('ref_axis',(0.,0.,1.));
#1705=DIRECTION('',(0.,0.,-1.));
#1706=DIRECTION('',(0.,0.,1.));
#1707=DIRECTION('center_axis',(0.,1.,0.));
#1708=DIRECTION('ref_axis',(0.,0.,1.));
#1709=DIRECTION('center_axis',(0.,1.,0.));
#1710=DIRECTION('ref_axis',(1.,0.,0.));
#1711=DIRECTION('center_axis',(-1.,0.,0.));
#1712=DIRECTION('ref_axis',(0.,0.,1.));
#1713=DIRECTION('',(0.,0.,-1.));
#1714=DIRECTION('',(0.,1.,0.));
#1715=DIRECTION('',(0.,0.,1.));
#1716=DIRECTION('',(0.,1.,0.));
#1717=DIRECTION('center_axis',(0.,0.,-1.));
#1718=DIRECTION('ref_axis',(-1.,0.,0.));
#1719=DIRECTION('',(1.,0.,0.));
#1720=DIRECTION('',(-1.,0.,0.));
#1721=DIRECTION('',(0.,1.,0.));
#1722=DIRECTION('center_axis',(1.,0.,0.));
#1723=DIRECTION('ref_axis',(0.,0.,-1.));
#1724=DIRECTION('',(0.,0.,1.));
#1725=DIRECTION('',(0.,0.,-1.));
#1726=DIRECTION('',(0.,1.,0.));
#1727=DIRECTION('center_axis',(0.,0.,1.));
#1728=DIRECTION('ref_axis',(1.,0.,0.));
#1729=DIRECTION('',(-1.,0.,0.));
#1730=DIRECTION('',(1.,0.,0.));
#1731=DIRECTION('center_axis',(0.,1.,0.));
#1732=DIRECTION('ref_axis',(0.,0.,1.));
#1733=DIRECTION('center_axis',(0.,1.,0.));
#1734=DIRECTION('ref_axis',(1.,0.,0.));
#1735=DIRECTION('center_axis',(-1.,0.,0.));
#1736=DIRECTION('ref_axis',(0.,0.,1.));
#1737=DIRECTION('',(0.,0.,-1.));
#1738=DIRECTION('',(0.,1.,0.));
#1739=DIRECTION('',(0.,0.,1.));
#1740=DIRECTION('',(0.,1.,0.));
#1741=DIRECTION('center_axis',(0.,0.,-1.));
#1742=DIRECTION('ref_axis',(-1.,0.,0.));
#1743=DIRECTION('',(1.,0.,0.));
#1744=DIRECTION('',(-1.,0.,0.));
#1745=DIRECTION('',(0.,1.,0.));
#1746=DIRECTION('center_axis',(1.,0.,0.));
#1747=DIRECTION('ref_axis',(0.,0.,-1.));
#1748=DIRECTION('',(0.,0.,1.));
#1749=DIRECTION('',(0.,0.,-1.));
#1750=DIRECTION('',(0.,1.,0.));
#1751=DIRECTION('center_axis',(0.,0.,1.));
#1752=DIRECTION('ref_axis',(1.,0.,0.));
#1753=DIRECTION('',(-1.,0.,0.));
#1754=DIRECTION('',(1.,0.,0.));
#1755=DIRECTION('center_axis',(0.,1.,0.));
#1756=DIRECTION('ref_axis',(0.,0.,1.));
#1757=DIRECTION('center_axis',(0.,1.,0.));
#1758=DIRECTION('ref_axis',(1.,0.,0.));
#1759=DIRECTION('center_axis',(1.,0.,0.));
#1760=DIRECTION('ref_axis',(0.,0.,-1.));
#1761=DIRECTION('',(0.,0.,1.));
#1762=DIRECTION('',(0.,1.,0.));
#1763=DIRECTION('',(0.,0.,-1.));
#1764=DIRECTION('',(0.,1.,0.));
#1765=DIRECTION('center_axis',(0.,0.,1.));
#1766=DIRECTION('ref_axis',(1.,0.,0.));
#1767=DIRECTION('',(-1.,0.,0.));
#1768=DIRECTION('',(1.,0.,0.));
#1769=DIRECTION('',(0.,1.,0.));
#1770=DIRECTION('center_axis',(-1.,0.,0.));
#1771=DIRECTION('ref_axis',(0.,0.,1.));
#1772=DIRECTION('',(0.,0.,-1.));
#1773=DIRECTION('',(0.,0.,1.));
#1774=DIRECTION('',(0.,1.,0.));
#1775=DIRECTION('center_axis',(0.,0.,-1.));
#1776=DIRECTION('ref_axis',(-1.,0.,0.));
#1777=DIRECTION('',(1.,0.,0.));
#1778=DIRECTION('',(-1.,0.,0.));
#1779=DIRECTION('center_axis',(0.,1.,0.));
#1780=DIRECTION('ref_axis',(0.,0.,1.));
#1781=DIRECTION('center_axis',(0.,1.,0.));
#1782=DIRECTION('ref_axis',(1.,0.,0.));
#1783=DIRECTION('center_axis',(-1.,0.,0.));
#1784=DIRECTION('ref_axis',(0.,0.,1.));
#1785=DIRECTION('',(0.,0.,-1.));
#1786=DIRECTION('',(0.,1.,0.));
#1787=DIRECTION('',(0.,0.,1.));
#1788=DIRECTION('',(0.,1.,0.));
#1789=DIRECTION('center_axis',(0.,0.,-1.));
#1790=DIRECTION('ref_axis',(-1.,0.,0.));
#1791=DIRECTION('',(1.,0.,0.));
#1792=DIRECTION('',(-1.,0.,0.));
#1793=DIRECTION('',(0.,1.,0.));
#1794=DIRECTION('center_axis',(1.,0.,0.));
#1795=DIRECTION('ref_axis',(0.,0.,-1.));
#1796=DIRECTION('',(0.,0.,1.));
#1797=DIRECTION('',(0.,0.,-1.));
#1798=DIRECTION('',(0.,1.,0.));
#1799=DIRECTION('center_axis',(0.,0.,1.));
#1800=DIRECTION('ref_axis',(1.,0.,0.));
#1801=DIRECTION('',(-1.,0.,0.));
#1802=DIRECTION('',(1.,0.,0.));
#1803=DIRECTION('center_axis',(0.,1.,0.));
#1804=DIRECTION('ref_axis',(0.,0.,1.));
#1805=DIRECTION('center_axis',(0.,1.,0.));
#1806=DIRECTION('ref_axis',(1.,0.,0.));
#1807=DIRECTION('center_axis',(-1.,0.,0.));
#1808=DIRECTION('ref_axis',(0.,0.,1.));
#1809=DIRECTION('',(0.,0.,-1.));
#1810=DIRECTION('',(0.,1.,0.));
#1811=DIRECTION('',(0.,0.,1.));
#1812=DIRECTION('',(0.,1.,0.));
#1813=DIRECTION('center_axis',(0.,0.,-1.));
#1814=DIRECTION('ref_axis',(-1.,0.,0.));
#1815=DIRECTION('',(1.,0.,0.));
#1816=DIRECTION('',(-1.,0.,0.));
#1817=DIRECTION('',(0.,1.,0.));
#1818=DIRECTION('center_axis',(1.,0.,0.));
#1819=DIRECTION('ref_axis',(0.,0.,-1.));
#1820=DIRECTION('',(0.,0.,1.));
#1821=DIRECTION('',(0.,0.,-1.));
#1822=DIRECTION('',(0.,1.,0.));
#1823=DIRECTION('center_axis',(-2.3373116307898E-16,0.,1.));
#1824=DIRECTION('ref_axis',(1.,0.,2.3373116307898E-16));
#1825=DIRECTION('',(-1.,0.,-2.3373116307898E-16));
#1826=DIRECTION('',(1.,0.,2.3373116307898E-16));
#1827=DIRECTION('center_axis',(0.,1.,0.));
#1828=DIRECTION('ref_axis',(0.,0.,1.));
#1829=DIRECTION('center_axis',(0.,1.,0.));
#1830=DIRECTION('ref_axis',(1.,0.,0.));
#1831=DIRECTION('center_axis',(0.,0.,-1.));
#1832=DIRECTION('ref_axis',(-1.,0.,0.));
#1833=DIRECTION('',(1.,0.,0.));
#1834=DIRECTION('',(0.,1.,0.));
#1835=DIRECTION('',(-1.,0.,0.));
#1836=DIRECTION('',(0.,1.,0.));
#1837=DIRECTION('center_axis',(1.,0.,0.));
#1838=DIRECTION('ref_axis',(0.,0.,-1.));
#1839=DIRECTION('',(0.,0.,1.));
#1840=DIRECTION('',(0.,0.,-1.));
#1841=DIRECTION('',(0.,1.,0.));
#1842=DIRECTION('center_axis',(0.,0.,1.));
#1843=DIRECTION('ref_axis',(1.,0.,0.));
#1844=DIRECTION('',(-1.,0.,0.));
#1845=DIRECTION('',(1.,0.,0.));
#1846=DIRECTION('',(0.,1.,0.));
#1847=DIRECTION('center_axis',(-1.,0.,0.));
#1848=DIRECTION('ref_axis',(0.,0.,1.));
#1849=DIRECTION('',(0.,0.,-1.));
#1850=DIRECTION('',(0.,0.,1.));
#1851=DIRECTION('center_axis',(0.,1.,0.));
#1852=DIRECTION('ref_axis',(0.,0.,1.));
#1853=DIRECTION('center_axis',(0.,1.,0.));
#1854=DIRECTION('ref_axis',(1.,0.,0.));
#1855=DIRECTION('center_axis',(0.,0.,-1.));
#1856=DIRECTION('ref_axis',(-1.,0.,0.));
#1857=DIRECTION('',(1.,0.,0.));
#1858=DIRECTION('',(0.,1.,0.));
#1859=DIRECTION('',(-1.,0.,0.));
#1860=DIRECTION('',(0.,1.,0.));
#1861=DIRECTION('center_axis',(1.,0.,0.));
#1862=DIRECTION('ref_axis',(0.,0.,-1.));
#1863=DIRECTION('',(0.,0.,-1.));
#1864=DIRECTION('',(0.,0.,-1.));
#1865=DIRECTION('',(0.,1.,0.));
#1866=DIRECTION('center_axis',(0.,0.,1.));
#1867=DIRECTION('ref_axis',(1.,0.,0.));
#1868=DIRECTION('',(-1.,0.,0.));
#1869=DIRECTION('',(1.,0.,0.));
#1870=DIRECTION('',(0.,1.,0.));
#1871=DIRECTION('center_axis',(-1.,0.,0.));
#1872=DIRECTION('ref_axis',(0.,0.,1.));
#1873=DIRECTION('',(0.,0.,1.));
#1874=DIRECTION('',(0.,0.,1.));
#1875=DIRECTION('center_axis',(0.,1.,0.));
#1876=DIRECTION('ref_axis',(0.,0.,1.));
#1877=DIRECTION('center_axis',(0.,1.,0.));
#1878=DIRECTION('ref_axis',(1.,0.,0.));
#1879=DIRECTION('center_axis',(-2.3373116307898E-16,0.,1.));
#1880=DIRECTION('ref_axis',(1.,0.,2.3373116307898E-16));
#1881=DIRECTION('',(-1.,0.,-2.3373116307898E-16));
#1882=DIRECTION('',(0.,1.,0.));
#1883=DIRECTION('',(1.,0.,2.3373116307898E-16));
#1884=DIRECTION('',(0.,1.,0.));
#1885=DIRECTION('center_axis',(-1.,0.,0.));
#1886=DIRECTION('ref_axis',(0.,0.,1.));
#1887=DIRECTION('',(0.,0.,-1.));
#1888=DIRECTION('',(0.,0.,1.));
#1889=DIRECTION('',(0.,1.,0.));
#1890=DIRECTION('center_axis',(0.,0.,-1.));
#1891=DIRECTION('ref_axis',(-1.,0.,0.));
#1892=DIRECTION('',(1.,0.,0.));
#1893=DIRECTION('',(-1.,0.,0.));
#1894=DIRECTION('',(0.,1.,0.));
#1895=DIRECTION('center_axis',(1.,0.,0.));
#1896=DIRECTION('ref_axis',(0.,0.,-1.));
#1897=DIRECTION('',(0.,0.,1.));
#1898=DIRECTION('',(0.,0.,-1.));
#1899=DIRECTION('center_axis',(0.,1.,0.));
#1900=DIRECTION('ref_axis',(0.,0.,1.));
#1901=DIRECTION('center_axis',(0.,1.,0.));
#1902=DIRECTION('ref_axis',(1.,0.,0.));
#1903=CARTESIAN_POINT('',(0.,0.,0.));
#1904=CARTESIAN_POINT('Origin',(0.,0.,-1020.));
#1905=CARTESIAN_POINT('',(0.,0.,-1020.));
#1906=CARTESIAN_POINT('',(76.,0.,-1020.));
#1907=CARTESIAN_POINT('',(0.,0.,-1020.));
#1908=CARTESIAN_POINT('',(76.,750.,-1020.));
#1909=CARTESIAN_POINT('',(76.,0.,-1020.));
#1910=CARTESIAN_POINT('',(0.,750.,-1020.));
#1911=CARTESIAN_POINT('',(0.,750.,-1020.));
#1912=CARTESIAN_POINT('',(0.,0.,-1020.));
#1913=CARTESIAN_POINT('Origin',(0.,0.,-1058.));
#1914=CARTESIAN_POINT('',(0.,0.,-1058.));
#1915=CARTESIAN_POINT('',(0.,0.,-1058.));
#1916=CARTESIAN_POINT('',(0.,750.,-1058.));
#1917=CARTESIAN_POINT('',(0.,750.,-1058.));
#1918=CARTESIAN_POINT('',(0.,0.,-1058.));
#1919=CARTESIAN_POINT('Origin',(75.9999999999999,0.,-1058.));
#1920=CARTESIAN_POINT('',(75.9999999999999,0.,-1058.));
#1921=CARTESIAN_POINT('',(1572.,0.,-1058.));
#1922=CARTESIAN_POINT('',(75.9999999999999,750.,-1058.));
#1923=CARTESIAN_POINT('',(1572.,750.,-1058.));
#1924=CARTESIAN_POINT('',(75.9999999999999,0.,-1058.));
#1925=CARTESIAN_POINT('Origin',(76.,0.,-1020.));
#1926=CARTESIAN_POINT('',(76.,0.,-1020.));
#1927=CARTESIAN_POINT('',(76.,750.,-1020.));
#1928=CARTESIAN_POINT('Origin',(38.,750.,-1039.));
#1929=CARTESIAN_POINT('Origin',(38.,0.,-1039.));
#1930=CARTESIAN_POINT('Origin',(0.,0.,-1096.));
#1931=CARTESIAN_POINT('',(0.,0.,-1058.));
#1932=CARTESIAN_POINT('',(0.,0.,-1096.));
#1933=CARTESIAN_POINT('',(0.,0.,-1058.));
#1934=CARTESIAN_POINT('',(0.,750.,-1058.));
#1935=CARTESIAN_POINT('',(0.,0.,-1058.));
#1936=CARTESIAN_POINT('',(0.,750.,-1096.));
#1937=CARTESIAN_POINT('',(0.,750.,-1058.));
#1938=CARTESIAN_POINT('',(0.,0.,-1096.));
#1939=CARTESIAN_POINT('Origin',(76.,0.,-1096.));
#1940=CARTESIAN_POINT('',(76.,0.,-1096.));
#1941=CARTESIAN_POINT('',(0.,0.,-1096.));
#1942=CARTESIAN_POINT('',(76.,750.,-1096.));
#1943=CARTESIAN_POINT('',(0.,750.,-1096.));
#1944=CARTESIAN_POINT('',(76.,0.,-1096.));
#1945=CARTESIAN_POINT('Origin',(76.,0.,-1058.));
#1946=CARTESIAN_POINT('',(75.9999999999999,0.,-1058.));
#1947=CARTESIAN_POINT('',(76.,0.,-1096.));
#1948=CARTESIAN_POINT('',(75.9999999999999,750.,-1058.));
#1949=CARTESIAN_POINT('',(76.,750.,-1096.));
#1950=CARTESIAN_POINT('',(75.9999999999999,0.,-1058.));
#1951=CARTESIAN_POINT('Origin',(0.,0.,-1058.));
#1952=CARTESIAN_POINT('',(1572.,0.,-1058.));
#1953=CARTESIAN_POINT('',(1572.,750.,-1058.));
#1954=CARTESIAN_POINT('Origin',(38.,750.,-1077.));
#1955=CARTESIAN_POINT('Origin',(38.,0.,-1077.));
#1956=CARTESIAN_POINT('Origin',(1496.,0.,-1058.));
#1957=CARTESIAN_POINT('',(1572.,0.,-1058.));
#1958=CARTESIAN_POINT('',(1496.,0.,-1058.));
#1959=CARTESIAN_POINT('',(1572.,0.,-1058.));
#1960=CARTESIAN_POINT('',(1572.,750.,-1058.));
#1961=CARTESIAN_POINT('',(1572.,0.,-1058.));
#1962=CARTESIAN_POINT('',(1496.,750.,-1058.));
#1963=CARTESIAN_POINT('',(1572.,750.,-1058.));
#1964=CARTESIAN_POINT('',(1496.,0.,-1058.));
#1965=CARTESIAN_POINT('Origin',(1496.,0.,-1096.));
#1966=CARTESIAN_POINT('',(1496.,0.,-1096.));
#1967=CARTESIAN_POINT('',(1496.,0.,-1058.));
#1968=CARTESIAN_POINT('',(1496.,750.,-1096.));
#1969=CARTESIAN_POINT('',(1496.,750.,-1058.));
#1970=CARTESIAN_POINT('',(1496.,0.,-1096.));
#1971=CARTESIAN_POINT('Origin',(1572.,0.,-1096.));
#1972=CARTESIAN_POINT('',(1572.,0.,-1096.));
#1973=CARTESIAN_POINT('',(0.,0.,-1096.));
#1974=CARTESIAN_POINT('',(1572.,750.,-1096.));
#1975=CARTESIAN_POINT('',(0.,750.,-1096.));
#1976=CARTESIAN_POINT('',(1572.,0.,-1096.));
#1977=CARTESIAN_POINT('Origin',(1572.,0.,-1058.));
#1978=CARTESIAN_POINT('',(1572.,0.,-1096.));
#1979=CARTESIAN_POINT('',(1572.,750.,-1096.));
#1980=CARTESIAN_POINT('Origin',(1534.,750.,-1077.));
#1981=CARTESIAN_POINT('Origin',(1534.,0.,-1077.));
#1982=CARTESIAN_POINT('Origin',(1496.,0.,-1020.));
#1983=CARTESIAN_POINT('',(1572.,0.,-1020.));
#1984=CARTESIAN_POINT('',(1496.,0.,-1020.));
#1985=CARTESIAN_POINT('',(1572.,0.,-1020.));
#1986=CARTESIAN_POINT('',(1572.,750.,-1020.));
#1987=CARTESIAN_POINT('',(1572.,0.,-1020.));
#1988=CARTESIAN_POINT('',(1496.,750.,-1020.));
#1989=CARTESIAN_POINT('',(1572.,750.,-1020.));
#1990=CARTESIAN_POINT('',(1496.,0.,-1020.));
#1991=CARTESIAN_POINT('Origin',(1496.,0.,-1058.));
#1992=CARTESIAN_POINT('',(1496.,0.,-1058.));
#1993=CARTESIAN_POINT('',(1496.,0.,-1020.));
#1994=CARTESIAN_POINT('',(1496.,750.,-1058.));
#1995=CARTESIAN_POINT('',(1496.,750.,-1020.));
#1996=CARTESIAN_POINT('',(1496.,0.,-1058.));
#1997=CARTESIAN_POINT('Origin',(1572.,0.,-1058.));
#1998=CARTESIAN_POINT('',(1572.,0.,-1058.));
#1999=CARTESIAN_POINT('',(1572.,0.,-1058.));
#2000=CARTESIAN_POINT('',(1572.,750.,-1058.));
#2001=CARTESIAN_POINT('',(1572.,750.,-1058.));
#2002=CARTESIAN_POINT('',(1572.,0.,-1058.));
#2003=CARTESIAN_POINT('Origin',(1572.,0.,-1020.));
#2004=CARTESIAN_POINT('',(1572.,0.,-1058.));
#2005=CARTESIAN_POINT('',(1572.,750.,-1058.));
#2006=CARTESIAN_POINT('Origin',(1534.,750.,-1039.));
#2007=CARTESIAN_POINT('Origin',(1534.,0.,-1039.));
#2008=CARTESIAN_POINT('Origin',(1572.,0.,0.));
#2009=CARTESIAN_POINT('',(1572.,0.,0.));
#2010=CARTESIAN_POINT('',(1496.,0.,0.));
#2011=CARTESIAN_POINT('',(1572.,0.,0.));
#2012=CARTESIAN_POINT('',(1496.,750.,0.));
#2013=CARTESIAN_POINT('',(1496.,0.,0.));
#2014=CARTESIAN_POINT('',(1572.,750.,0.));
#2015=CARTESIAN_POINT('',(1572.,750.,0.));
#2016=CARTESIAN_POINT('',(1572.,0.,0.));
#2017=CARTESIAN_POINT('Origin',(1572.,0.,38.));
#2018=CARTESIAN_POINT('',(1572.,0.,38.));
#2019=CARTESIAN_POINT('',(1572.,0.,38.));
#2020=CARTESIAN_POINT('',(1572.,750.,38.));
#2021=CARTESIAN_POINT('',(1572.,750.,38.));
#2022=CARTESIAN_POINT('',(1572.,0.,38.));
#2023=CARTESIAN_POINT('Origin',(1496.,0.,38.));
#2024=CARTESIAN_POINT('',(1496.,0.,38.));
#2025=CARTESIAN_POINT('',(0.,0.,38.));
#2026=CARTESIAN_POINT('',(1496.,750.,38.));
#2027=CARTESIAN_POINT('',(0.,750.,38.));
#2028=CARTESIAN_POINT('',(1496.,0.,38.));
#2029=CARTESIAN_POINT('Origin',(1496.,0.,0.));
#2030=CARTESIAN_POINT('',(1496.,0.,0.));
#2031=CARTESIAN_POINT('',(1496.,750.,0.));
#2032=CARTESIAN_POINT('Origin',(1534.,750.,19.));
#2033=CARTESIAN_POINT('Origin',(1534.,0.,19.));
#2034=CARTESIAN_POINT('Origin',(1572.,0.,38.));
#2035=CARTESIAN_POINT('',(1496.,0.,38.));
#2036=CARTESIAN_POINT('',(1572.,0.,38.));
#2037=CARTESIAN_POINT('',(0.,0.,38.));
#2038=CARTESIAN_POINT('',(1496.,750.,38.));
#2039=CARTESIAN_POINT('',(1496.,0.,38.));
#2040=CARTESIAN_POINT('',(1572.,750.,38.));
#2041=CARTESIAN_POINT('',(0.,750.,38.));
#2042=CARTESIAN_POINT('',(1572.,0.,38.));
#2043=CARTESIAN_POINT('Origin',(1572.,0.,76.));
#2044=CARTESIAN_POINT('',(1572.,0.,76.));
#2045=CARTESIAN_POINT('',(1572.,0.,38.));
#2046=CARTESIAN_POINT('',(1572.,750.,76.));
#2047=CARTESIAN_POINT('',(1572.,750.,38.));
#2048=CARTESIAN_POINT('',(1572.,0.,76.));
#2049=CARTESIAN_POINT('Origin',(1496.,0.,76.));
#2050=CARTESIAN_POINT('',(1496.,0.,76.));
#2051=CARTESIAN_POINT('',(1572.,0.,76.));
#2052=CARTESIAN_POINT('',(1496.,750.,76.));
#2053=CARTESIAN_POINT('',(1572.,750.,76.));
#2054=CARTESIAN_POINT('',(1496.,0.,76.));
#2055=CARTESIAN_POINT('Origin',(1496.,0.,38.));
#2056=CARTESIAN_POINT('',(1496.,0.,38.));
#2057=CARTESIAN_POINT('',(1496.,750.,38.));
#2058=CARTESIAN_POINT('Origin',(1534.,750.,57.));
#2059=CARTESIAN_POINT('Origin',(1534.,0.,57.));
#2060=CARTESIAN_POINT('Origin',(76.,0.,0.));
#2061=CARTESIAN_POINT('',(0.,0.,0.));
#2062=CARTESIAN_POINT('',(76.,0.,0.));
#2063=CARTESIAN_POINT('',(0.,0.,0.));
#2064=CARTESIAN_POINT('',(0.,750.,0.));
#2065=CARTESIAN_POINT('',(0.,0.,0.));
#2066=CARTESIAN_POINT('',(76.,750.,0.));
#2067=CARTESIAN_POINT('',(0.,750.,0.));
#2068=CARTESIAN_POINT('',(76.,0.,0.));
#2069=CARTESIAN_POINT('Origin',(76.,0.,38.));
#2070=CARTESIAN_POINT('',(76.,0.,38.));
#2071=CARTESIAN_POINT('',(76.,0.,0.));
#2072=CARTESIAN_POINT('',(76.,750.,38.));
#2073=CARTESIAN_POINT('',(76.,750.,0.));
#2074=CARTESIAN_POINT('',(76.,0.,38.));
#2075=CARTESIAN_POINT('Origin',(0.,0.,38.));
#2076=CARTESIAN_POINT('',(0.,0.,38.));
#2077=CARTESIAN_POINT('',(0.,0.,38.));
#2078=CARTESIAN_POINT('',(0.,750.,38.));
#2079=CARTESIAN_POINT('',(0.,750.,38.));
#2080=CARTESIAN_POINT('',(0.,0.,38.));
#2081=CARTESIAN_POINT('Origin',(0.,0.,0.));
#2082=CARTESIAN_POINT('',(0.,0.,38.));
#2083=CARTESIAN_POINT('',(0.,750.,38.));
#2084=CARTESIAN_POINT('Origin',(38.,750.,19.));
#2085=CARTESIAN_POINT('Origin',(38.,0.,19.));
#2086=CARTESIAN_POINT('Origin',(0.,0.,38.));
#2087=CARTESIAN_POINT('',(0.,0.,76.));
#2088=CARTESIAN_POINT('',(0.,0.,38.));
#2089=CARTESIAN_POINT('',(0.,0.,76.));
#2090=CARTESIAN_POINT('',(0.,750.,76.));
#2091=CARTESIAN_POINT('',(0.,0.,76.));
#2092=CARTESIAN_POINT('',(0.,750.,38.));
#2093=CARTESIAN_POINT('',(0.,750.,76.));
#2094=CARTESIAN_POINT('',(0.,0.,38.));
#2095=CARTESIAN_POINT('Origin',(76.,0.,38.));
#2096=CARTESIAN_POINT('',(76.,0.,38.));
#2097=CARTESIAN_POINT('',(0.,0.,38.));
#2098=CARTESIAN_POINT('',(76.,750.,38.));
#2099=CARTESIAN_POINT('',(0.,750.,38.));
#2100=CARTESIAN_POINT('',(76.,0.,38.));
#2101=CARTESIAN_POINT('Origin',(76.,0.,76.));
#2102=CARTESIAN_POINT('',(75.9999999999999,0.,76.));
#2103=CARTESIAN_POINT('',(76.,0.,38.));
#2104=CARTESIAN_POINT('',(75.9999999999999,750.,76.));
#2105=CARTESIAN_POINT('',(76.,750.,38.));
#2106=CARTESIAN_POINT('',(75.9999999999999,0.,76.));
#2107=CARTESIAN_POINT('Origin',(0.,0.,76.));
#2108=CARTESIAN_POINT('',(1572.,0.,76.));
#2109=CARTESIAN_POINT('',(1572.,750.,76.));
#2110=CARTESIAN_POINT('Origin',(38.,750.,57.));
#2111=CARTESIAN_POINT('Origin',(38.,0.,57.));
#2112=CARTESIAN_POINT('Origin',(0.,674.,-1096.));
#2113=CARTESIAN_POINT('',(0.,674.,-1058.));
#2114=CARTESIAN_POINT('',(0.,674.,-1096.));
#2115=CARTESIAN_POINT('',(0.,674.,-1058.));
#2116=CARTESIAN_POINT('',(0.,750.,-1058.));
#2117=CARTESIAN_POINT('',(0.,674.,-1058.));
#2118=CARTESIAN_POINT('',(0.,750.,-1096.));
#2119=CARTESIAN_POINT('',(0.,750.,-1058.));
#2120=CARTESIAN_POINT('',(0.,674.,-1096.));
#2121=CARTESIAN_POINT('Origin',(1572.,674.,-1096.));
#2122=CARTESIAN_POINT('',(1572.,674.,-1096.));
#2123=CARTESIAN_POINT('',(0.,674.,-1096.));
#2124=CARTESIAN_POINT('',(1572.,750.,-1096.));
#2125=CARTESIAN_POINT('',(0.,750.,-1096.));
#2126=CARTESIAN_POINT('',(1572.,674.,-1096.));
#2127=CARTESIAN_POINT('Origin',(1572.,674.,-1058.));
#2128=CARTESIAN_POINT('',(1572.,674.,-1058.));
#2129=CARTESIAN_POINT('',(1572.,674.,-1096.));
#2130=CARTESIAN_POINT('',(1572.,750.,-1058.));
#2131=CARTESIAN_POINT('',(1572.,750.,-1096.));
#2132=CARTESIAN_POINT('',(1572.,674.,-1058.));
#2133=CARTESIAN_POINT('Origin',(0.,674.,-1058.));
#2134=CARTESIAN_POINT('',(1572.,674.,-1058.));
#2135=CARTESIAN_POINT('',(1572.,750.,-1058.));
#2136=CARTESIAN_POINT('Origin',(786.,750.,-1077.));
#2137=CARTESIAN_POINT('Origin',(786.,674.,-1077.));
#2138=CARTESIAN_POINT('Origin',(1572.,674.,76.));
#2139=CARTESIAN_POINT('',(1572.,674.,38.));
#2140=CARTESIAN_POINT('',(1572.,674.,76.));
#2141=CARTESIAN_POINT('',(1572.,674.,38.));
#2142=CARTESIAN_POINT('',(1572.,750.,38.));
#2143=CARTESIAN_POINT('',(1572.,674.,38.));
#2144=CARTESIAN_POINT('',(1572.,750.,76.));
#2145=CARTESIAN_POINT('',(1572.,750.,38.));
#2146=CARTESIAN_POINT('',(1572.,674.,76.));
#2147=CARTESIAN_POINT('Origin',(0.,674.,76.));
#2148=CARTESIAN_POINT('',(0.,674.,76.));
#2149=CARTESIAN_POINT('',(1572.,674.,76.));
#2150=CARTESIAN_POINT('',(0.,750.,76.));
#2151=CARTESIAN_POINT('',(1572.,750.,76.));
#2152=CARTESIAN_POINT('',(0.,674.,76.));
#2153=CARTESIAN_POINT('Origin',(0.,674.,38.));
#2154=CARTESIAN_POINT('',(0.,674.,38.));
#2155=CARTESIAN_POINT('',(0.,674.,76.));
#2156=CARTESIAN_POINT('',(0.,750.,38.));
#2157=CARTESIAN_POINT('',(0.,750.,76.));
#2158=CARTESIAN_POINT('',(0.,674.,38.));
#2159=CARTESIAN_POINT('Origin',(1572.,674.,38.));
#2160=CARTESIAN_POINT('',(0.,674.,38.));
#2161=CARTESIAN_POINT('',(0.,750.,38.));
#2162=CARTESIAN_POINT('Origin',(786.,750.,57.));
#2163=CARTESIAN_POINT('Origin',(786.,674.,57.));
#2164=CARTESIAN_POINT('Origin',(38.,674.,-1058.));
#2165=CARTESIAN_POINT('',(38.,674.,38.));
#2166=CARTESIAN_POINT('',(38.,674.,-1058.));
#2167=CARTESIAN_POINT('',(38.,674.,38.));
#2168=CARTESIAN_POINT('',(38.,750.,38.));
#2169=CARTESIAN_POINT('',(38.,674.,38.));
#2170=CARTESIAN_POINT('',(38.,750.,-1058.));
#2171=CARTESIAN_POINT('',(38.,750.,38.));
#2172=CARTESIAN_POINT('',(38.,674.,-1058.));
#2173=CARTESIAN_POINT('Origin',(76.,674.,-1058.));
#2174=CARTESIAN_POINT('',(76.,674.,-1058.));
#2175=CARTESIAN_POINT('',(38.,674.,-1058.));
#2176=CARTESIAN_POINT('',(76.,750.,-1058.));
#2177=CARTESIAN_POINT('',(38.,750.,-1058.));
#2178=CARTESIAN_POINT('',(76.,674.,-1058.));
#2179=CARTESIAN_POINT('Origin',(76.,674.,38.));
#2180=CARTESIAN_POINT('',(76.,674.,38.));
#2181=CARTESIAN_POINT('',(76.,674.,-1058.));
#2182=CARTESIAN_POINT('',(76.,750.,38.));
#2183=CARTESIAN_POINT('',(76.,750.,-1058.));
#2184=CARTESIAN_POINT('',(76.,674.,38.));
#2185=CARTESIAN_POINT('Origin',(38.,674.,38.));
#2186=CARTESIAN_POINT('',(76.,674.,38.));
#2187=CARTESIAN_POINT('',(76.,750.,38.));
#2188=CARTESIAN_POINT('Origin',(57.,750.,-510.));
#2189=CARTESIAN_POINT('Origin',(57.,674.,-510.));
#2190=CARTESIAN_POINT('Origin',(1496.,674.,-1058.));
#2191=CARTESIAN_POINT('',(1496.,674.,38.));
#2192=CARTESIAN_POINT('',(1496.,674.,-1058.));
#2193=CARTESIAN_POINT('',(1496.,674.,38.));
#2194=CARTESIAN_POINT('',(1496.,750.,38.));
#2195=CARTESIAN_POINT('',(1496.,674.,38.));
#2196=CARTESIAN_POINT('',(1496.,750.,-1058.));
#2197=CARTESIAN_POINT('',(1496.,750.,38.));
#2198=CARTESIAN_POINT('',(1496.,674.,-1058.));
#2199=CARTESIAN_POINT('Origin',(1534.,674.,-1058.));
#2200=CARTESIAN_POINT('',(1534.,674.,-1058.));
#2201=CARTESIAN_POINT('',(1496.,674.,-1058.));
#2202=CARTESIAN_POINT('',(1534.,750.,-1058.));
#2203=CARTESIAN_POINT('',(1496.,750.,-1058.));
#2204=CARTESIAN_POINT('',(1534.,674.,-1058.));
#2205=CARTESIAN_POINT('Origin',(1534.,674.,38.));
#2206=CARTESIAN_POINT('',(1534.,674.,38.));
#2207=CARTESIAN_POINT('',(1534.,674.,-1058.));
#2208=CARTESIAN_POINT('',(1534.,750.,38.));
#2209=CARTESIAN_POINT('',(1534.,750.,-1058.));
#2210=CARTESIAN_POINT('',(1534.,674.,38.));
#2211=CARTESIAN_POINT('Origin',(1496.,674.,38.));
#2212=CARTESIAN_POINT('',(1534.,674.,38.));
#2213=CARTESIAN_POINT('',(1534.,750.,38.));
#2214=CARTESIAN_POINT('Origin',(1515.,750.,-510.));
#2215=CARTESIAN_POINT('Origin',(1515.,674.,-510.));
#2216=CARTESIAN_POINT('Origin',(76.,78.0000000000001,-1058.));
#2217=CARTESIAN_POINT('',(38.,78.0000000000001,-1058.));
#2218=CARTESIAN_POINT('',(76.,78.0000000000001,-1058.));
#2219=CARTESIAN_POINT('',(38.,78.0000000000001,-1058.));
#2220=CARTESIAN_POINT('',(38.,154.,-1058.));
#2221=CARTESIAN_POINT('',(38.,78.0000000000001,-1058.));
#2222=CARTESIAN_POINT('',(76.,154.,-1058.));
#2223=CARTESIAN_POINT('',(38.,154.,-1058.));
#2224=CARTESIAN_POINT('',(76.,78.0000000000001,-1058.));
#2225=CARTESIAN_POINT('Origin',(76.,78.0000000000001,38.));
#2226=CARTESIAN_POINT('',(76.,78.0000000000001,38.));
#2227=CARTESIAN_POINT('',(76.,78.0000000000001,-1058.));
#2228=CARTESIAN_POINT('',(76.,154.,38.));
#2229=CARTESIAN_POINT('',(76.,154.,-1058.));
#2230=CARTESIAN_POINT('',(76.,78.0000000000001,38.));
#2231=CARTESIAN_POINT('Origin',(38.,78.0000000000001,38.));
#2232=CARTESIAN_POINT('',(38.,78.0000000000001,38.));
#2233=CARTESIAN_POINT('',(76.,78.0000000000001,38.));
#2234=CARTESIAN_POINT('',(38.,154.,38.));
#2235=CARTESIAN_POINT('',(76.,154.,38.));
#2236=CARTESIAN_POINT('',(38.,78.0000000000001,38.));
#2237=CARTESIAN_POINT('Origin',(38.,78.0000000000001,-1058.));
#2238=CARTESIAN_POINT('',(38.,78.0000000000001,38.));
#2239=CARTESIAN_POINT('',(38.,154.,38.));
#2240=CARTESIAN_POINT('Origin',(57.,154.,-510.));
#2241=CARTESIAN_POINT('Origin',(57.,78.0000000000001,-510.));
#2242=CARTESIAN_POINT('Origin',(1496.,78.0000000000001,-510.));
#2243=CARTESIAN_POINT('',(76.,78.0000000000001,-510.));
#2244=CARTESIAN_POINT('',(1496.,78.0000000000001,-510.));
#2245=CARTESIAN_POINT('',(38.,78.0000000000001,-510.));
#2246=CARTESIAN_POINT('',(76.,154.,-510.));
#2247=CARTESIAN_POINT('',(76.,78.0000000000001,-510.));
#2248=CARTESIAN_POINT('',(1496.,154.,-510.));
#2249=CARTESIAN_POINT('',(38.,154.,-510.));
#2250=CARTESIAN_POINT('',(1496.,78.0000000000001,-510.));
#2251=CARTESIAN_POINT('Origin',(1496.,78.0000000000001,-472.));
#2252=CARTESIAN_POINT('',(1496.,78.0000000000001,-472.));
#2253=CARTESIAN_POINT('',(1496.,78.0000000000001,38.));
#2254=CARTESIAN_POINT('',(1496.,154.,-472.));
#2255=CARTESIAN_POINT('',(1496.,154.,38.));
#2256=CARTESIAN_POINT('',(1496.,78.0000000000001,-472.));
#2257=CARTESIAN_POINT('Origin',(75.9999999999999,78.0000000000001,-472.));
#2258=CARTESIAN_POINT('',(75.9999999999999,78.0000000000001,-472.));
#2259=CARTESIAN_POINT('',(1534.,78.0000000000001,-472.));
#2260=CARTESIAN_POINT('',(75.9999999999999,154.,-472.));
#2261=CARTESIAN_POINT('',(1534.,154.,-472.));
#2262=CARTESIAN_POINT('',(75.9999999999999,78.0000000000001,-472.));
#2263=CARTESIAN_POINT('Origin',(76.,78.0000000000001,-510.));
#2264=CARTESIAN_POINT('',(76.,78.0000000000001,-1058.));
#2265=CARTESIAN_POINT('',(76.,154.,-1058.));
#2266=CARTESIAN_POINT('Origin',(786.,154.,-491.));
#2267=CARTESIAN_POINT('Origin',(786.,78.0000000000001,-491.));
#2268=CARTESIAN_POINT('Origin',(1496.,78.0000000000001,38.));
#2269=CARTESIAN_POINT('',(1534.,78.0000000000001,38.));
#2270=CARTESIAN_POINT('',(1496.,78.0000000000001,38.));
#2271=CARTESIAN_POINT('',(1534.,78.0000000000001,38.));
#2272=CARTESIAN_POINT('',(1534.,154.,38.));
#2273=CARTESIAN_POINT('',(1534.,78.0000000000001,38.));
#2274=CARTESIAN_POINT('',(1496.,154.,38.));
#2275=CARTESIAN_POINT('',(1534.,154.,38.));
#2276=CARTESIAN_POINT('',(1496.,78.0000000000001,38.));
#2277=CARTESIAN_POINT('Origin',(1496.,78.0000000000001,-1058.));
#2278=CARTESIAN_POINT('',(1496.,78.0000000000001,-1058.));
#2279=CARTESIAN_POINT('',(1496.,78.0000000000001,38.));
#2280=CARTESIAN_POINT('',(1496.,154.,-1058.));
#2281=CARTESIAN_POINT('',(1496.,154.,38.));
#2282=CARTESIAN_POINT('',(1496.,78.0000000000001,-1058.));
#2283=CARTESIAN_POINT('Origin',(1534.,78.0000000000001,-1058.));
#2284=CARTESIAN_POINT('',(1534.,78.0000000000001,-1058.));
#2285=CARTESIAN_POINT('',(1496.,78.0000000000001,-1058.));
#2286=CARTESIAN_POINT('',(1534.,154.,-1058.));
#2287=CARTESIAN_POINT('',(1496.,154.,-1058.));
#2288=CARTESIAN_POINT('',(1534.,78.0000000000001,-1058.));
#2289=CARTESIAN_POINT('Origin',(1534.,78.0000000000001,38.));
#2290=CARTESIAN_POINT('',(1534.,78.0000000000001,-1058.));
#2291=CARTESIAN_POINT('',(1534.,154.,-1058.));
#2292=CARTESIAN_POINT('Origin',(1515.,154.,-510.));
#2293=CARTESIAN_POINT('Origin',(1515.,78.0000000000001,-510.));
#2294=UNCERTAINTY_MEASURE_WITH_UNIT(LENGTH_MEASURE(0.01),#2298,
'DISTANCE_ACCURACY_VALUE',
'Maximum model space distance between geometric entities at asserted c
onnectivities');
#2295=UNCERTAINTY_MEASURE_WITH_UNIT(LENGTH_MEASURE(0.01),#2298,
'DISTANCE_ACCURACY_VALUE',
'Maximum model space distance between geometric entities at asserted c
onnectivities');
#2296=(
GEOMETRIC_REPRESENTATION_CONTEXT(3)
GLOBAL_UNCERTAINTY_ASSIGNED_CONTEXT((#2294))
GLOBAL_UNIT_ASSIGNED_CONTEXT((#2298,#2300,#2301))
REPRESENTATION_CONTEXT('','3D')
);
#2297=(
GEOMETRIC_REPRESENTATION_CONTEXT(3)
GLOBAL_UNCERTAINTY_ASSIGNED_CONTEXT((#2295))
GLOBAL_UNIT_ASSIGNED_CONTEXT((#2298,#2300,#2301))
REPRESENTATION_CONTEXT('','3D')
);
#2298=(
LENGTH_UNIT()
NAMED_UNIT(*)
SI_UNIT(.MILLI.,.METRE.)
);
#2299=(
LENGTH_UNIT()
NAMED_UNIT(*)
SI_UNIT($,.METRE.)
);
#2300=(
NAMED_UNIT(*)
PLANE_ANGLE_UNIT()
SI_UNIT($,.RADIAN.)
);
#2301=(
NAMED_UNIT(*)
SI_UNIT($,.STERADIAN.)
SOLID_ANGLE_UNIT()
);
#2302=SHAPE_DEFINITION_REPRESENTATION(#2303,#2304);
#2303=PRODUCT_DEFINITION_SHAPE('',$,#2306);
#2304=SHAPE_REPRESENTATION('',(#1450),#2296);
#2305=PRODUCT_DEFINITION_CONTEXT('part definition',#2310,'design');
#2306=PRODUCT_DEFINITION('table','table',#2307,#2305);
#2307=PRODUCT_DEFINITION_FORMATION('',$,#2312);
#2308=PRODUCT_RELATED_PRODUCT_CATEGORY('table','table',(#2312));
#2309=APPLICATION_PROTOCOL_DEFINITION('international standard',
'automotive_design',2009,#2310);
#2310=APPLICATION_CONTEXT(
'Core Data for Automotive Mechanical Design Process');
#2311=PRODUCT_CONTEXT('part definition',#2310,'mechanical');
#2312=PRODUCT('table','table',$,(#2311));
#2313=PRESENTATION_STYLE_ASSIGNMENT((#2314));
#2314=SURFACE_STYLE_USAGE(.BOTH.,#2315);
#2315=SURFACE_SIDE_STYLE('',(#2316));
#2316=SURFACE_STYLE_FILL_AREA(#2317);
#2317=FILL_AREA_STYLE('Steel - Satin',(#2318));
#2318=FILL_AREA_STYLE_COLOUR('Steel - Satin',#2319);
#2319=COLOUR_RGB('Steel - Satin',0.627450980392157,0.627450980392157,0.627450980392157);
ENDSEC;
END-ISO-10303-21;
